<svg xmlns="http://www.w3.org/2000/svg" viewBox="0 0 341.34 52.74">
  <defs>
    <style>
      .cls-1 {
        fill: #013365;
      }
    </style>
  </defs>
  <g id="レイヤー_2" data-name="レイヤー 2">
    <g id="レイヤー_2-2" data-name="レイヤー 2">
      <g>
        <g>
          <path d="M46.27,24.09c-.93,0-1-1.12-1-1.89,0-2.28,0-3.2-2-4.05-.15-.08-.75-.33-.75-.4a.11.11,0,0,1,.1-.1c.17,0,1.37.2,1.65.2.7,0,.9-.48,1.87-2.73a65.53,65.53,0,0,0,2.42-6.4c.13-.45.15-.5.28-.5a.09.09,0,0,1,.1.1,40.91,40.91,0,0,1-1.25,5.3,22,22,0,0,0-1,4.48,14.65,14.65,0,0,0,.78,3.42,5.19,5.19,0,0,1,.2,1.1A1.41,1.41,0,0,1,46.27,24.09Zm-.68-13.62c-.32,0-.45-.17-.8-.8A9.33,9.33,0,0,0,43.12,7.6c-.25-.25-.28-.25-.28-.33s.08-.1.13-.1.65.1.8.13c1.2.27,2.77.65,2.77,2.15A1,1,0,0,1,45.59,10.47Zm2.2-5.3c-.45,0-.57-.2-1-.92A12.1,12.1,0,0,0,45,2.13c-.08,0-.35-.25-.35-.33s.12-.1.15-.1c2.07,0,4,1,4,2.47A1,1,0,0,1,47.79,5.17Zm13.87,4.9c.75,0,1,0,1.28-.22s1-1.1,1.2-1.1,1.75,1.17,1.75,1.62-.48.35-1.35.35H54.29c-2.2,0-2.93,0-3.15.08l-.55,0c-.08,0-.13,0-.2-.15l-.5-.58c-.1-.12-.1-.12-.1-.17s0,0,.07,0,1,.07,1.13.07c1.22,0,2.25.1,3.42.1h1.2c.78,0,.78-.3.78-1.7a.63.63,0,0,0-.63-.7c-.75,0-2,0-3,0-.1,0-.7.08-.75.08s-.12,0-.2-.15l-.5-.58c-.1-.12-.1-.12-.1-.17s0-.05.08-.05,1,.07,1.12.07c.43,0,2.1.1,3.3.1.7,0,.7-.47.7-.77,0-1.1,0-1.43-.7-1.43H54.39c-2.18,0-2.9,0-3.15,0a3.23,3.23,0,0,1-.53.08c-.1,0-.15-.08-.22-.18L50,4.2c-.1-.1-.12-.13-.12-.15A.09.09,0,0,1,50,4c.17,0,.95.08,1.1.1,1.22,0,2.25.08,3.42.08h1.13a.68.68,0,0,0,.72-.65,7,7,0,0,0-.1-1c0-.13-.22-.7-.22-.83a.27.27,0,0,1,.3-.25,13.1,13.1,0,0,1,1.72.4c.75.2.83.25.83.48s0,.17-.55.6c-.18.14-.23.25-.23.57a.7.7,0,0,0,.75.7h1.88c.8,0,1.07,0,1.32-.25s.73-1.17.95-1.17S64.69,4,64.69,4.45s-.45.37-1.35.37H58.89c-.33,0-.8,0-.8.73,0,1.17,0,1.47.8,1.47h1.32c1,0,1.1,0,1.38-.47.42-.7.55-.78.7-.78C62.64,5.77,64,6.9,64,7.32s-.48.35-1.33.35h-3.8c-.27,0-.77,0-.77.73,0,1.35,0,1.67.77,1.67Zm-7.4,9.58a.67.67,0,0,0-.72.4s0,1.62,0,1.72.08.93.08,1.1A1.2,1.2,0,0,1,52.31,24c-.8,0-.8-.6-.8-.95,0-.17.13-1.1.15-1.3,0-.6.13-2.65.13-4.35,0,0,0-3.5-.08-4.12,0-.13-.12-.78-.12-.93s0-.3.32-.3a10.83,10.83,0,0,1,1.55.73,2.94,2.94,0,0,0,1,.17H61a1,1,0,0,0,.8-.3c.42-.55.45-.6.62-.6a.65.65,0,0,1,.2,0c.13.08.7.58.83.68.8.62.87.7.87.9a.68.68,0,0,1-.35.5c-.42.32-.45.35-.45.67,0,1,.23,5.7.23,6.78a2.47,2.47,0,0,1-.5,1.79,3.19,3.19,0,0,1-1.93.8.49.49,0,0,1-.45-.24,7.4,7.4,0,0,0-.9-1.18c-.07-.1-.7-.42-.7-.57s.05-.13.2-.13,1.48.13,1.73.13c.8,0,.82-.13.82-.88,0-1.25,0-1.72-.75-1.72Zm0-3c-.77,0-.77.42-.77,1.2s0,1.17.77,1.17h6.93c.77,0,.77-.4.77-1.17s0-1.2-.77-1.2Zm.1-3c-.77,0-.8.35-.8.92,0,1.08,0,1.35.8,1.35h6.75c.83,0,.83-.32.83-1.15s0-1.12-.83-1.12Z"/>
          <path d="M78.21,20.55c0,.17-1,.35-1.12.42-2.43,1.13-3.13,1.45-3.78,1.7A21.3,21.3,0,0,1,68,23.94s-.18,0-.18,0,.48-.28.9-.46c4.22-1.59,6.52-3.49,7-4.07s.47-.57.65-.57a.91.91,0,0,1,.35.15C77.09,19.22,78.21,20.17,78.21,20.55Zm8.2-2.88c1.08,0,1.33,0,1.6-.42.58-.88.65-1,.93-1s2,1.2,2,1.73c0,.32-.52.32-1.35.32h-17c-1.4,0-2.4,0-3.18.08l-.52.05c-.1,0-.13-.05-.23-.15l-.47-.58c-.1-.12-.1-.12-.1-.17s0-.05.07-.05,1,.07,1.1.07c1.23.05,2.25.1,3.43.1ZM77.84,6.82c.75,0,.75-.32.75-1.37,0-.6-.4-.7-.73-.7h-3.6c-2.19,0-2.92,0-3.17.07l-.52,0c-.08,0-.13,0-.23-.15l-.47-.57c-.1-.13-.1-.13-.1-.18s0-.05.07-.05,1,.08,1.1.08c1.23,0,2.27.1,3.42.1h3.43c.25,0,.75,0,.75-.62a5,5,0,0,0-.15-1.18,8.15,8.15,0,0,1-.3-.77c0-.1.22-.1.37-.1l2.2.37a.42.42,0,0,1,.33.38c0,.17,0,.2-.38.55a1.65,1.65,0,0,0-.27.82A.58.58,0,0,0,81,4.1h3.25c1.07,0,1.32,0,1.6-.43.67-1,.75-1.12,1-1.12s2.33,1.37,2.33,1.85-.53.35-1.33.35H81c-.5,0-.75.15-.75.65,0,1.17,0,1.42.8,1.42h2a1.24,1.24,0,0,0,1.08-.47c.25-.33.32-.4.47-.4s1.93.9,1.93,1.27c0,.18-.55.68-.63.8a1.57,1.57,0,0,0-.2,1c0,1,.2,5.4.2,6.3,0,.33,0,1.55-1.3,1.55-.65,0-.7-.27-.77-.77,0-.25-.35-.38-.65-.38H75.69a.83.83,0,0,0-.9.55,1.54,1.54,0,0,1-1.18.73c-.55,0-.72-.38-.72-.78,0-.2,0-.55,0-.9.1-1.07.12-2.3.12-3.45S73,8,72.89,7c0-.15-.18-.75-.18-.88s.18-.17.25-.17c.33,0,.5.1,1.25.52a3.4,3.4,0,0,0,1.78.4Zm-2.33.65c-.22,0-.77,0-.77.65,0,1.2,0,1.48.77,1.48h7.75c.25,0,.78,0,.78-.65,0-1.18,0-1.48-.78-1.48Zm0,2.8c-.25,0-.78,0-.78.65,0,1.08,0,1.35.78,1.35h7.72c.25,0,.78,0,.78-.65,0-1,0-1.35-.78-1.35ZM75.46,13a.61.61,0,0,0-.7.62c0,1.13,0,1.45.7,1.45h7.88c.7,0,.7-.47.7-1s0-1-.7-1ZM83,19.4c4.15,1.65,5.75,2.3,5.75,3.92a.86.86,0,0,1-.85,1c-.4,0-.62-.2-2.5-2-.6-.58-4.62-3.35-4.52-3.55A10.12,10.12,0,0,1,83,19.4Z"/>
          <path d="M111.14,7.8c1,0,1.27,0,1.6-.43s.32-.45.6-.45c.52,0,2.37,1.58,2.37,2.15,0,.28-.32.4-.5.4s-.77-.12-.87-.12a4.24,4.24,0,0,0-2.63,1.25c-.2.15-.32.25-.45.25a.11.11,0,0,1-.1-.1c0-.28.85-1.73.85-1.95s-.32-.35-.67-.35H96.52c-.45,0-.68,0-.8.5-.33,1.15-.63,2.42-1.63,2.42a1,1,0,0,1-.92-1c0-.53.12-.7.9-1.78a3.78,3.78,0,0,0,.72-2c0-.07.08-.27.2-.27s.43.45.7,1.1c.15.35.48.35.73.35Zm-8.43,8.9c.3,0,.78,0,.78-.65a9.36,9.36,0,0,0-.08-1.18c-.07-.37-.17-.87-.17-1s0-.4.27-.4,1.28.32,1.5.32c.55,0,2.45-1.85,2.45-2.12s-.12-.18-.47-.18h-5.88c-.6,0-2.3,0-3.15.08l-.54.05c-.08,0-.13-.05-.2-.15l-.5-.58c-.1-.12-.1-.12-.1-.17s0-.05.07-.05c.18,0,.93.07,1.1.07.72.05,2,.1,3.45.1h5.65c1.12,0,1.22,0,1.6-.42s.4-.4.62-.4a3.56,3.56,0,0,1,1.58,1.65c0,.37-.23.42-1,.6a20,20,0,0,0-4.15,2c-.32.2-.37.22-.37,1.72,0,.68.55.68.8.68h4.32c1,0,1.38,0,1.6-.43.48-.85.55-1,1-1a4.73,4.73,0,0,1,2.3,1.8c0,.33-.5.33-1.33.33h-8c-.73,0-.73.2-.73,1.47a35.79,35.79,0,0,1-.12,3.93,1.82,1.82,0,0,1-2,1.44c-.35,0-.37-.15-.47-.44-.2-.68-1-1-2-1.45-.3-.13-.57-.23-.57-.38s.15-.12.22-.12,2.1.3,2.5.3.73,0,.75-1.28c0-.55.05-2.32.05-2.7s-.07-.77-.77-.77h-4.8c-.6,0-2.3,0-3.17.07l-.53,0c-.07,0-.12,0-.22-.15l-.48-.57c-.1-.13-.1-.13-.1-.18s0-.05.08-.05.92.08,1.1.08c.72,0,2,.1,3.44.1Zm-6-14.5c.5,0,3.62,1.18,3.62,3.42a.88.88,0,0,1-.85,1c-.62,0-.72-.2-1.47-1.8a9.33,9.33,0,0,0-1.45-2.29s-.1-.18-.07-.23S96.64,2.2,96.69,2.2ZM105.76,5c0,.75-.45,1.28-.92,1.28-.78,0-.93-1-1-1.48A13.5,13.5,0,0,0,103,2c0-.07-.2-.42-.12-.5C103.06,1.2,105.76,2.93,105.76,5Zm6.85-1.49c0,.22-.1.25-.55.37s-.55.22-1.52,1.22a13,13,0,0,1-2.78,2.35.11.11,0,0,1-.1-.1s.88-1.62,1-1.82a13.6,13.6,0,0,0,1.27-3.27c.08-.48.1-.55.25-.55a1.12,1.12,0,0,1,.48.2C111.29,2.28,112.61,3.08,112.61,3.48Z"/>
          <path d="M136.59,2.9a1,1,0,0,0,.67-.22c.13-.08.53-.7.65-.7s1.6,1,1.85,1.17a.44.44,0,0,1,.18.3c0,.18-.08.2-.45.4-.18.1-.18.22-.2.47s0,3.05,0,5.58c0,2,.18,11,.18,12.85A1.23,1.23,0,0,1,138.06,24c-.35,0-.5-.27-.5-.6,0-.65,0-1.05-.77-1.05H122.07c-.48,0-.75.15-.78.6a1.07,1.07,0,0,1-1.2,1.07c-.67,0-.7-.27-.7-.77,0-1,.2-5.3.23-6.17,0-3.3,0-7.53,0-11a21,21,0,0,0-.2-3.22c0-.16-.25-.8-.25-1s.1-.08.15-.08.32.08,1.57.65a3.33,3.33,0,0,0,1.45.35Zm-14.65.65c-.72,0-.72.45-.72.72,0,1.1,0,5.88,0,6.85V21c0,.27,0,.7.75.7h14.95c.72,0,.72-.43.72-.7,0-3.43,0-12.38,0-12.95s0-3.93,0-4-.12-.47-.72-.47Zm4.47,10.52a.63.63,0,0,0-.62.53c-.1.45-.75.62-1.08.62s-.42-.12-.42-1.3c0-.45.07-2.37.07-2.77,0-.1-.07-.55-.07-.63s0-.2.17-.2.8.28,1,.33a4.06,4.06,0,0,0,.77.1h5.65a.8.8,0,0,0,.65-.25c.05-.05.25-.4.33-.4s1.55.8,1.55,1.05-.1.25-.35.42a.4.4,0,0,0-.15.38v2.32c0,.48-.58.7-.95.7-.53,0-.53-.2-.55-.47s-.35-.43-.58-.43h-1.27c-.8,0-.8.35-.8.85,0,.83.12,1,.27,1.1a5.12,5.12,0,0,0,1.6.65c.48,0,1.15-.85,1.28-1,.35-.45.4-.5.5-.5s1.67.53,1.67.83-.42.32-.9.35a3.53,3.53,0,0,0-1.65.6c0,.07,0,.1.3.2,2,.72,2.65,1.3,2.65,2.1,0,.55-.35.82-.62.82-.48,0-.73-.25-1.4-.92a17.07,17.07,0,0,0-3.35-2.45.33.33,0,0,0-.33.37c0,.5.15,2.7.15,3.15,0,.68-1,.83-1.15.83-.52,0-.57-.35-.57-.75,0-.6.07-3.28.07-3.83,0-.3,0-.57-.3-.57-.1,0-.2,0-.45.25a14.11,14.11,0,0,1-5,3.32s-.07,0-.07,0,.18-.2.32-.3a18.73,18.73,0,0,0,4.48-4.85c0-.2-.13-.2-.2-.2ZM131.51,6c.63,0,.68,0,.8,0s1-1,1.13-1S135,6,135,6.3s-.12.35-1.3.35h-2.8c-.72,0-.8.35-.8.92,0,.9,0,1.2.8,1.2h1.78c.7,0,.8,0,.95-.12s.92-1.23,1.05-1.23,1.72,1.23,1.72,1.63-.15.37-1.55.37h-7.6c-.57,0-2.27,0-3.15.08l-.52.05c-.1,0-.15-.05-.23-.15l-.49-.58a.26.26,0,0,1-.1-.17s0-.05.1-.05,1.32.1,1.57.1c1.82.07,1.87.07,3.4.07.67,0,.67-.32.67-1.4,0-.22,0-.72-.72-.72a23.57,23.57,0,0,0-2.75.07c-.08,0-.28,0-.35,0s-.15,0-.23-.15l-.5-.57c0-.08-.1-.13-.1-.18s0,0,.1,0l1,.08c.8,0,2.3.1,3,.1.23,0,.55,0,.55-.55a3.86,3.86,0,0,0-.12-1,1.81,1.81,0,0,1-.18-.4c0-.1.15-.1.2-.1s2.3.15,2.3.52c0,.08-.27.33-.45.48s-.12.2-.12.45.07.55.5.55Zm-5,5.4c-.57,0-.75.22-.75.85,0,.8,0,1.15.75,1.15h5.25c.6,0,.78-.23.78-.85s0-1.15-.78-1.15Z"/>
          <path d="M160.71,4.6A1.24,1.24,0,0,0,162,4.07c.7-1,.78-1.09,1-1.09a9.32,9.32,0,0,1,2.68,1.94c0,.35-.5.35-1.35.35h-16.4c-2.2,0-2.92,0-3.17.05-.08,0-.45.08-.53.08s-.12-.08-.22-.18l-.48-.57c-.1-.1-.1-.13-.1-.15a.07.07,0,0,1,.08-.08c.17,0,.95.1,1.1.1,1.22.08,2.27.08,3.44.08h4.58c.75,0,.82-.3.82-.83a8,8,0,0,0-.07-1c0-.15-.15-.88-.15-1s.07-.22.27-.22a13.68,13.68,0,0,1,1.88.35c.27.07.6.12.6.4s-.05.22-.48.62c-.2.17-.2.55-.2.72,0,.88.18,1,.85,1ZM147.39,14.72c-.77,0-.77.08-.77,2.28,0,.82.1,4.9.1,5.82a1.25,1.25,0,0,1-1.4,1.27c-.68,0-.68-.27-.68-.57,0-.55.1-3.17.1-3.77,0-1.38,0-3.45-.07-4.75,0-.25-.13-1.43-.13-1.55s0-.35.2-.35,1.53.7,1.83.8a4.09,4.09,0,0,0,1.07.15h13.8a.9.9,0,0,0,.8-.33c.57-.65.65-.7.77-.7s1.8,1,1.8,1.45c0,.18-.05.25-.52.83a5.08,5.08,0,0,0-.2,1.8c0,.67.07,4,.07,4.75a1.72,1.72,0,0,1-.87,1.69,3.64,3.64,0,0,1-1.43.61c-.3,0-.42-.18-.77-.78a2.58,2.58,0,0,0-1.5-1.1c-.35-.1-.45-.27-.45-.35s.17-.1.27-.1c.25,0,1.7.1,2,.1.92,0,.92-.35.92-.77s0-2.23,0-2.65c0-1.78,0-2.88,0-3.23,0-.55-.52-.55-.85-.55Zm4.22-3.07c-.32,0-.6,0-.7.32a1.12,1.12,0,0,1-1.15.83c-.82,0-.82-.53-.82-1.1,0-.25.05-1.53.05-1.8,0-.6,0-1.88-.05-2.43,0-.07-.08-.47-.08-.55s0-.27.2-.27,1.3.52,1.43.57a2.81,2.81,0,0,0,1.37.28h5.5c.43,0,.58,0,.75-.25s.5-.55.65-.55,1.75.9,1.75,1.25c0,.15-.57.67-.62.82a3.82,3.82,0,0,0-.08.75c0,.28.05,1.68.05,2a1.32,1.32,0,0,1-1.35,1.13c-.42,0-.47-.18-.52-.53s-.43-.47-.8-.47Zm1.13,9.25c-.38,0-.58,0-.7.42s-.25.88-1.08.88-.75-.33-.75-.73.08-1.8.08-2.12c0-.5,0-1.05,0-1.6,0-.15-.1-1-.1-1.18s0-.35.2-.35.88.4.95.43a3.34,3.34,0,0,0,1.18.2h3.2c.45,0,.6-.05.77-.28.4-.47.45-.52.55-.52s1.78.77,1.78,1.22c0,.13,0,.15-.45.65a.63.63,0,0,0-.2.5c0,.23.05,2.35.05,2.48,0,.8-.88,1.17-1.28,1.17s-.5-.2-.57-.7c0-.22-.23-.47-.73-.47ZM151.66,8.15c-.82,0-.82.3-.82,1,0,1.65,0,1.83.72,1.83h5.78c.75,0,.75-.05.75-2,0-.4,0-.82-.73-.82Zm1.13,9.35c-.83,0-.83.3-.83,1.25,0,1.25,0,1.5.83,1.5h2.82c.8,0,.8-.3.8-1.25,0-1.28,0-1.5-.8-1.5Z"/>
          <path d="M185.91,13.65c1.13,0,1.25,0,1.6-.43.7-.82.78-.92,1-.92s2.1,1.22,2.1,1.65-.48.35-1.35.35H172.52a28.15,28.15,0,0,0-3.15.07l-.53.05c-.1,0-.12-.05-.22-.15l-.48-.57c-.1-.13-.1-.13-.1-.18s0,0,.08,0,.95.08,1.1.08c1.22,0,2.25.1,3.42.1h5.1c.65,0,.87-.15.87-.78V11.45c0-.63-.15-.73-.82-.73H175c-2.2,0-2.92,0-3.14,0a4.05,4.05,0,0,1-.55.08c-.08,0-.13-.08-.2-.18l-.5-.57c-.1-.1-.1-.13-.1-.15s0-.08.07-.08.95.1,1.13.1c1.2,0,2.24.08,3.42.08h2.62c.43,0,.8,0,.8-.58,0-.3-.07-1.6-.07-1.85s.15-.2.32-.2,2.13.3,2.13.75c0,.15-.18.35-.43.6a1.19,1.19,0,0,0-.17.7c0,.58.32.58.8.58h2.67c1.1,0,1.25,0,1.6-.4.73-.83.78-.93,1-.93s2.1,1.23,2.1,1.63-.47.37-1.32.37h-6c-.47,0-.7,0-.8.28a5,5,0,0,0-.07,1.45c0,1,0,1.2.87,1.2ZM174.66,5.12c-.27,0-.35,0-.35.1s.13.25.25.33A3.29,3.29,0,0,1,176.21,8a1.08,1.08,0,0,1-1,1.17c-.73,0-.8-.67-.93-2,0-.25-.2-2-1.17-2a1.48,1.48,0,0,0-1.12.53c-.55.52-2.7,2.4-3.1,2.4-.05,0-.13,0-.13-.1s1-1.4,1.2-1.6a15,15,0,0,0,2.55-4.55c.1-.3.13-.5.3-.5a10.36,10.36,0,0,1,1.05.4c1.1.45,1.22.5,1.22.73s-.67.65-.8.77a5.89,5.89,0,0,0-.9,1.12c0,.13.13.13.43.13h.77c1.15,0,1.28,0,1.6-.4.5-.63.55-.7.8-.7s1.9,1.05,1.9,1.42-.5.35-1.32.35Zm-.95,12.68c-1.42,0-2.72,0-3.17.07l-.52.05a.32.32,0,0,1-.23-.15l-.47-.57c-.1-.13-.1-.13-.1-.18s0-.05.07-.05,1,.08,1.1.08c1.23.05,2.28.1,3.45.1h7.9c.35,0,.77,0,.77-.55,0-.25-.1-1.38-.1-1.58s0-.15.2-.15,2.33.13,2.33.7c0,.13-.38.53-.48.63a.66.66,0,0,0-.1.42c0,.53.45.53.75.53h.4a1.05,1.05,0,0,0,1-.43c.7-.82.78-.92,1-.92s2.1,1.22,2.1,1.65-.47.35-1.35.35h-3.1c-.32,0-.82,0-.82.77,0,.5,0,2.73,0,3.18a2.05,2.05,0,0,1-1.1,2,3,3,0,0,1-1.38.43c-.37,0-.4-.07-.6-.68s-.5-.67-1.5-1.14c-.07,0-.32-.18-.32-.23s.12-.07.22-.07,1.88.17,2,.17c.8,0,.8-.1.8-1.95,0-.27,0-1.9-.05-2.07-.12-.45-.45-.45-.92-.45ZM177,21.65a1.19,1.19,0,0,1-1,1.27c-.48,0-.53-.12-1-1.4a6.79,6.79,0,0,0-.95-1.82c-.37-.45-.47-.6-.47-.68s.1-.1.17-.1a5.52,5.52,0,0,1,1.68.63A2.64,2.64,0,0,1,177,21.65Zm4.63-16.6a1.29,1.29,0,0,0-1.18.42,12.67,12.67,0,0,1-2.55,2,.09.09,0,0,1-.1-.08s.58-.85.65-1A18.86,18.86,0,0,0,180.91,2c.1-.35.2-.7.33-.7s2.4.5,2.4,1c0,.2-.08.25-.68.55a4.27,4.27,0,0,0-1.25,1.4c0,.12.18.12.4.12h3.13c1,0,1.37,0,1.6-.42.5-.9.57-1,.87-1s2.38,1.3,2.38,1.75-.5.35-1.33.35h-4.12c-.23,0-.38,0-.38.1s.05.17.35.5c1.2,1.22,1.23,1.62,1.23,2a1,1,0,0,1-1,1c-.6,0-.65-.22-1-1.77-.38-1.8-.8-1.8-1.23-1.8Z"/>
          <path d="M211.14,7.8c1,0,1.27,0,1.6-.43s.32-.45.6-.45c.52,0,2.37,1.58,2.37,2.15,0,.28-.32.4-.5.4s-.77-.12-.87-.12a4.24,4.24,0,0,0-2.63,1.25c-.2.15-.32.25-.45.25a.11.11,0,0,1-.1-.1c0-.28.85-1.73.85-1.95s-.32-.35-.67-.35H196.52c-.45,0-.68,0-.8.5-.33,1.15-.63,2.42-1.63,2.42a1,1,0,0,1-.92-1c0-.53.12-.7.9-1.78a3.78,3.78,0,0,0,.72-2c0-.07.08-.27.2-.27s.43.45.7,1.1c.15.35.48.35.73.35Zm-8.43,8.9c.3,0,.78,0,.78-.65a9.36,9.36,0,0,0-.08-1.18c-.07-.37-.17-.87-.17-1s0-.4.27-.4,1.28.32,1.5.32c.55,0,2.45-1.85,2.45-2.12s-.12-.18-.47-.18h-5.88c-.6,0-2.3,0-3.15.08l-.54.05c-.08,0-.13-.05-.2-.15l-.5-.58c-.1-.12-.1-.12-.1-.17s0-.05.07-.05c.18,0,.93.07,1.1.07.72.05,2,.1,3.45.1h5.65c1.12,0,1.22,0,1.6-.42s.4-.4.62-.4a3.56,3.56,0,0,1,1.58,1.65c0,.37-.23.42-1,.6a20,20,0,0,0-4.15,2c-.32.2-.37.22-.37,1.72,0,.68.55.68.8.68h4.32c1,0,1.38,0,1.6-.43.48-.85.55-1,1-1a4.73,4.73,0,0,1,2.3,1.8c0,.33-.5.33-1.33.33h-8c-.73,0-.73.2-.73,1.47a35.79,35.79,0,0,1-.12,3.93,1.82,1.82,0,0,1-2,1.44c-.35,0-.37-.15-.47-.44-.2-.68-1-1-2-1.45-.3-.13-.57-.23-.57-.38s.15-.12.22-.12,2.1.3,2.5.3.73,0,.75-1.28c0-.55,0-2.32,0-2.7s-.07-.77-.77-.77h-4.8c-.6,0-2.3,0-3.17.07l-.53,0c-.07,0-.12,0-.22-.15l-.48-.57c-.1-.13-.1-.13-.1-.18s.05-.05.08-.05.92.08,1.1.08c.72,0,2,.1,3.44.1Zm-6-14.5c.5,0,3.62,1.18,3.62,3.42a.88.88,0,0,1-.85,1c-.62,0-.72-.2-1.47-1.8a9.33,9.33,0,0,0-1.45-2.29s-.1-.18-.07-.23S196.64,2.2,196.69,2.2ZM205.76,5c0,.75-.45,1.28-.92,1.28-.78,0-.93-1-1-1.48A13.5,13.5,0,0,0,203,2c0-.07-.2-.42-.12-.5C203.06,1.2,205.76,2.93,205.76,5Zm6.85-1.49c0,.22-.1.25-.55.37s-.55.22-1.52,1.22a13,13,0,0,1-2.78,2.35.11.11,0,0,1-.1-.1s.88-1.62,1-1.82a13.6,13.6,0,0,0,1.27-3.27c.08-.48.1-.55.25-.55a1.12,1.12,0,0,1,.48.2C211.29,2.28,212.61,3.08,212.61,3.48Z"/>
          <path d="M218.24,7.7c-.1-.13-.1-.13-.1-.18s0,0,.08,0c.45,0,2.45.15,2.85.15.72,0,.72-.45.72-.82s0-2.7,0-3.15-.13-1.65-.13-1.92c0-.05.05-.1.13-.1.32,0,2.29.4,2.29.85,0,.17-.57.84-.62,1s-.15,3.37-.15,3.75.12.42.65.42c.12,0,.17,0,.47-.5,0-.07.4-.65.68-.65S226.81,7.6,226.81,8s-.5.35-1,.35h-1.78c-.79,0-.79.3-.79,1.35,0,.3,0,.38.57.7,1.47.85,2.35,1.38,2.35,2.55,0,.48-.2,1.15-.75,1.15s-.63-.2-1.23-2a2.54,2.54,0,0,0-.82-1.25c-.1,0-.18.15-.18.47,0,1,.1,5.6.1,6.53v4.7c.08.65,0,.72-.19.92A1.74,1.74,0,0,1,222,24c-.38,0-.5-.27-.5-.62s.12-1.77.12-2.07c0-1.7.08-5.88.08-7.53,0-.12-.05-.2-.1-.2s-.1.15-.15.25a13.56,13.56,0,0,1-3.68,5.28c-.07,0-.1-.08-.1-.15s.73-1.5.85-1.78a30.22,30.22,0,0,0,2.7-7.2,9.91,9.91,0,0,0,.2-1.1.6.6,0,0,0-.67-.6c-.3,0-1.6.1-1.85.1-.1,0-.15-.05-.23-.15Zm14.45,12.47a17.21,17.21,0,0,1-5.08,3.27,11.78,11.78,0,0,1-2.07.6c-.1,0-.2,0-.2-.1s.37-.29.75-.47a18.92,18.92,0,0,0,5.52-4.22c.7-.75.73-.85.73-1s-.35-.68-.53-1a17.17,17.17,0,0,1-1.75-4.45s-.17-.75-.17-.82.05-.25.15-.25.17.05.5.9a12.92,12.92,0,0,0,2.6,4.57c.22,0,1.5-1.85,2.25-4.4a9.86,9.86,0,0,1,.35-1.15,11,11,0,0,1,2.4,1.55c0,.23-.23.35-.83.73-.37.22-.52.55-1,1.5A15,15,0,0,1,234.64,18c-.18.23-.25.33-.25.45,0,.63,3.65,2.88,6.2,3.28.07,0,.75.12.75.2a7.57,7.57,0,0,1-1.23.52c-.25.13-1.2,1-1.45,1a14.67,14.67,0,0,1-2.87-1.57,13.08,13.08,0,0,1-2-1.85c-.12-.15-.32-.35-.47-.35S232.81,20.05,232.69,20.17ZM236.31,5.8c1.08,0,1.3,0,1.6-.43.5-.77.58-.85.78-.85a7,7,0,0,1,1.67,1.13c.13.1.4.27.4.45,0,.35-.5.35-1.32.35h-8.55c-1.68,0-2.58,0-3.18.07l-.52.05c-.08,0-.13-.05-.23-.15l-.47-.57c-.1-.1-.1-.13-.1-.15s0-.08.07-.08.95.08,1.1.1c1.23,0,2.28.08,3.43.08h.5c.3,0,.77,0,.77-.7s0-1.7-.12-2.52c0-.18-.1-.9-.1-1s.07,0,.12,0,1.3.2,1.73.3c.67.15.9.23.9.5s0,.22-.48.55C234,3.08,234,3.32,234,5c0,.75.37.78.85.78Zm-4.17,2.67c0,.18-.08.23-.68.53a15.3,15.3,0,0,0-1.6,1.72c-.5.55-2.67,2.7-3.22,2.7,0,0-.08,0-.08-.07a1.84,1.84,0,0,1,.43-.63,18.74,18.74,0,0,0,3-4.67c0-.13.2-.73.27-.83C230.59,7.3,232.14,8.12,232.14,8.47Zm7.92,2.95a.8.8,0,0,1-.82.9c-.55,0-.85-.3-1.75-1.72a14.35,14.35,0,0,0-2.6-2.68,1.42,1.42,0,0,1-.33-.32C234.66,7.35,240.06,8.87,240.06,11.42Z"/>
          <path d="M252.76,12.82a1.65,1.65,0,1,1,1.65,1.65A1.65,1.65,0,0,1,252.76,12.82Z"/>
          <path d="M273.14,15.12c-.62,0-.67.33-.72.88a1.66,1.66,0,0,1-1.48,1.4c-.62,0-.65-.33-.65-.65s.08-1,.1-1.23c.05-.95.05-3.3.05-4,0-1.58-.05-3.2-.15-4.53,0-.12-.07-.82-.07-.87s0-.18.07-.18c.23,0,.4.1,1.9.9a2.48,2.48,0,0,0,1.35.35h4.15c.75,0,.75-.45.75-.92,0-.75,0-3-.08-3.72,0-.15-.15-.78-.15-.93s.15-.15.25-.15,2.45.38,2.45.85c0,.15-.52.65-.55.78a15.75,15.75,0,0,0-.1,3.27c0,.37,0,.82.7.82h4.65a.79.79,0,0,0,.78-.35c.47-.65.52-.72.75-.72s2.12,1.27,2.12,1.6c0,.15-.55.62-.62.75-.2.35-.2.65-.2,3.15,0,.5.07,3,.07,3.57s0,.83-.25,1.15A1.69,1.69,0,0,1,287,17c-.7,0-.7-.6-.7-1.22,0-.23,0-.68-.73-.68h-4.5c-.45,0-.8.05-.8.83s.05,5.2.05,6.17c0,.53,0,2-1.32,2-.83,0-.83-.74-.83-1s.1-1.55.1-1.85c0-.88.08-4.4.08-5.25,0-.6-.08-.88-.75-.88Zm4.52-.67c.2,0,.53,0,.65-.3a34.2,34.2,0,0,0,.15-4.08c0-2,0-2.2-.77-2.2H273c-.72,0-.72.28-.72,1.18,0,.62.05,3.72.05,4.45s.12.95.77.95Zm8.1,0c.23,0,.58,0,.65-.38,0-.17.13-4.9.13-5.37s-.23-.83-.73-.83H281c-.73,0-.73.5-.73.85,0,.65,0,5,.08,5.28s.35.45.67.45Z"/>
          <path d="M311.14,7.8c1,0,1.27,0,1.6-.43s.32-.45.6-.45c.52,0,2.37,1.58,2.37,2.15,0,.28-.32.4-.5.4s-.77-.12-.87-.12a4.24,4.24,0,0,0-2.63,1.25c-.2.15-.32.25-.45.25a.11.11,0,0,1-.1-.1c0-.28.85-1.73.85-1.95s-.32-.35-.67-.35H296.52c-.45,0-.68,0-.8.5-.33,1.15-.63,2.42-1.63,2.42a1,1,0,0,1-.92-1c0-.53.12-.7.9-1.78a3.78,3.78,0,0,0,.72-2c0-.07.08-.27.2-.27s.43.45.7,1.1c.15.35.48.35.73.35Zm-8.43,8.9c.3,0,.78,0,.78-.65a9.36,9.36,0,0,0-.08-1.18c-.07-.37-.17-.87-.17-1s0-.4.27-.4,1.28.32,1.5.32c.55,0,2.45-1.85,2.45-2.12s-.12-.18-.47-.18h-5.88c-.6,0-2.3,0-3.15.08l-.54.05c-.08,0-.13-.05-.2-.15l-.5-.58c-.1-.12-.1-.12-.1-.17s.05-.05.07-.05c.18,0,.93.07,1.1.07.72.05,2,.1,3.45.1h5.65c1.12,0,1.22,0,1.6-.42s.4-.4.62-.4a3.56,3.56,0,0,1,1.58,1.65c0,.37-.23.42-1,.6a20,20,0,0,0-4.15,2c-.32.2-.37.22-.37,1.72,0,.68.55.68.8.68h4.32c1,0,1.38,0,1.6-.43.48-.85.55-1,1-1a4.73,4.73,0,0,1,2.3,1.8c0,.33-.5.33-1.33.33h-8c-.73,0-.73.2-.73,1.47a35.79,35.79,0,0,1-.12,3.93,1.82,1.82,0,0,1-2,1.44c-.35,0-.37-.15-.47-.44-.2-.68-1-1-2-1.45-.3-.13-.57-.23-.57-.38s.15-.12.22-.12,2.1.3,2.5.3.73,0,.75-1.28c0-.55.05-2.32.05-2.7s-.07-.77-.77-.77h-4.8c-.6,0-2.3,0-3.17.07l-.53,0c-.07,0-.12,0-.22-.15l-.48-.57c-.1-.13-.1-.13-.1-.18s.05-.05.08-.05.92.08,1.1.08c.72,0,2,.1,3.44.1Zm-6-14.5c.5,0,3.62,1.18,3.62,3.42a.88.88,0,0,1-.85,1c-.62,0-.72-.2-1.47-1.8a9.33,9.33,0,0,0-1.45-2.29s-.1-.18-.07-.23S296.64,2.2,296.69,2.2ZM305.76,5c0,.75-.45,1.28-.92,1.28-.78,0-.93-1-1-1.48A13.5,13.5,0,0,0,303,2c0-.07-.2-.42-.12-.5C303.06,1.2,305.76,2.93,305.76,5Zm6.85-1.49c0,.22-.1.25-.55.37s-.55.22-1.52,1.22a13,13,0,0,1-2.78,2.35.11.11,0,0,1-.1-.1s.88-1.62,1-1.82a13.6,13.6,0,0,0,1.27-3.27c.08-.48.1-.55.25-.55a1.12,1.12,0,0,1,.48.2C311.29,2.28,312.61,3.08,312.61,3.48Z"/>
          <path d="M318.24,7.7c-.1-.13-.1-.13-.1-.18s0,0,.08,0c.45,0,2.45.15,2.85.15.72,0,.72-.45.72-.82s0-2.7,0-3.15-.13-1.65-.13-1.92c0-.05.05-.1.13-.1.32,0,2.29.4,2.29.85,0,.17-.57.84-.62,1s-.15,3.37-.15,3.75.12.42.65.42c.12,0,.17,0,.47-.5.05-.07.4-.65.68-.65S326.81,7.6,326.81,8s-.5.35-1,.35h-1.78c-.79,0-.79.3-.79,1.35,0,.3,0,.38.57.7,1.47.85,2.35,1.38,2.35,2.55,0,.48-.2,1.15-.75,1.15s-.63-.2-1.23-2a2.54,2.54,0,0,0-.82-1.25c-.1,0-.18.15-.18.47,0,1,.1,5.6.1,6.53v4.7c.08.65,0,.72-.19.92A1.74,1.74,0,0,1,322,24c-.38,0-.5-.27-.5-.62s.12-1.77.12-2.07c0-1.7.08-5.88.08-7.53,0-.12-.05-.2-.1-.2s-.1.15-.15.25a13.56,13.56,0,0,1-3.68,5.28c-.07,0-.1-.08-.1-.15s.73-1.5.85-1.78a30.22,30.22,0,0,0,2.7-7.2,9.91,9.91,0,0,0,.2-1.1.6.6,0,0,0-.67-.6c-.3,0-1.6.1-1.85.1s-.15-.05-.23-.15Zm14.45,12.47a17.21,17.21,0,0,1-5.08,3.27,11.78,11.78,0,0,1-2.07.6c-.1,0-.2,0-.2-.1s.37-.29.75-.47a18.92,18.92,0,0,0,5.52-4.22c.7-.75.73-.85.73-1s-.35-.68-.53-1a17.17,17.17,0,0,1-1.75-4.45s-.17-.75-.17-.82.05-.25.15-.25.17.05.5.9a12.92,12.92,0,0,0,2.6,4.57c.22,0,1.5-1.85,2.25-4.4a9.86,9.86,0,0,1,.35-1.15,11,11,0,0,1,2.4,1.55c0,.23-.23.35-.83.73-.37.22-.52.55-1,1.5A15,15,0,0,1,334.64,18c-.18.23-.25.33-.25.45,0,.63,3.65,2.88,6.2,3.28.07,0,.75.12.75.2a7.57,7.57,0,0,1-1.23.52c-.25.13-1.2,1-1.45,1a14.67,14.67,0,0,1-2.87-1.57,13.08,13.08,0,0,1-2-1.85c-.12-.15-.32-.35-.47-.35S332.81,20.05,332.69,20.17ZM336.31,5.8c1.08,0,1.3,0,1.6-.43.5-.77.58-.85.78-.85a7,7,0,0,1,1.67,1.13c.13.1.4.27.4.45,0,.35-.5.35-1.32.35h-8.55c-1.68,0-2.58,0-3.18.07l-.52.05c-.08,0-.13-.05-.23-.15l-.47-.57c-.1-.1-.1-.13-.1-.15s0-.08.07-.08,1,.08,1.1.1c1.23,0,2.28.08,3.43.08h.5c.3,0,.77,0,.77-.7s-.05-1.7-.12-2.52c0-.18-.1-.9-.1-1s.07,0,.12,0,1.3.2,1.73.3c.67.15.9.23.9.5s-.05.22-.48.55C334,3.08,334,3.32,334,5c0,.75.37.78.85.78Zm-4.17,2.67c0,.18-.08.23-.68.53a15.3,15.3,0,0,0-1.6,1.72c-.5.55-2.67,2.7-3.22,2.7-.05,0-.08,0-.08-.07a1.84,1.84,0,0,1,.43-.63,18.74,18.74,0,0,0,3-4.67c.05-.13.2-.73.27-.83C330.59,7.3,332.14,8.12,332.14,8.47Zm7.92,2.95a.8.8,0,0,1-.82.9c-.55,0-.85-.3-1.75-1.72a14.35,14.35,0,0,0-2.6-2.68,1.42,1.42,0,0,1-.33-.32C334.66,7.35,340.06,8.87,340.06,11.42Z"/>
        </g>
        <g>
          <path d="M52.28,43.84c0-.09-.25.19-.33.2s-.34.13-.41.28a7.54,7.54,0,0,1-5.45.6,5,5,0,0,0-1.27-.4A4.09,4.09,0,0,0,44,44a4.76,4.76,0,0,0-.41-.47,2,2,0,0,1-.19-1.21,1.89,1.89,0,0,1,.93-.54c.17.11.58,0,.75.14s.51,0,.53.26-.32.17-.53.14-.42-.17-.62-.14-.11.26-.27.27-.21.14-.19.34c.1.65.71.81,1.13,1.14.41,0,.62.2,1,.27.14.1.3.08.47.14,0,0,0,.06.07.06a6.44,6.44,0,0,0,1.15.14h.33a8.48,8.48,0,0,1,1.14,0,3.25,3.25,0,0,1,.88-.2c.56-.31,1.16-.59,1.68-1a3.38,3.38,0,0,1,.53-.54.68.68,0,0,1,.2-.47,3.6,3.6,0,0,0-.06-1.54c-.18-.21-.28-.48-.47-.67s-.4-.38-.48-.68a2.31,2.31,0,0,1-.87-.67.58.58,0,0,1-.41-.07c-.12-.15-.32-.25-.4-.46h-.46c-.17-.23-.52-.25-.68-.48-.25.09-.37-.07-.54-.14l-.87-.33c-.14,0-.32-.07-.48-.13s-.15-.13-.19-.14-.48-.11-.75-.2l-.19-.14a2,2,0,0,1-.41-.07,2.57,2.57,0,0,1-.26-.12,1,1,0,0,1,.12-.67c.76-.1,1.32-.41,2.09-.48.52-.32,1.51-.2,2.09-.46A7.12,7.12,0,0,0,51,34.63a5.82,5.82,0,0,0,1.08-.06c.14,0,.23.06.39.06s.6-.07.88-.06a5,5,0,0,1,.6.06c.17,0,.41,0,.54.07s.11.12.14.14.15,0,.19,0,.31.39.48.53c0,.21.12.24.07.48s-.13.19-.07.4c-.17,0-.18.18-.27.27s-.15,0-.21.07-.07.08-.12.12a5.91,5.91,0,0,1-.61.41c-.1.1-.47.13-.47-.07s.11-.24.26-.27.1-.26.27-.26.18-.18.34-.21c0-.21.18-.17.21-.34-.16-.53-.87-.52-1.28-.8-.15,0-.1.13-.21.13s-.17-.06-.27-.06a12,12,0,0,0-3,.2c-.77.11-1.5.25-2.23.34a9.3,9.3,0,0,1-1.47.4c0,.17.22.1.34.2a3.94,3.94,0,0,0,.6.21,10.89,10.89,0,0,0,1.34.6,7,7,0,0,0,1.35.53c.07.21.32.25.48.34s0,.12.05.14.16,0,.21,0,0,.12.07.12a4,4,0,0,1,.94.68c.21.12.32.36.6.4,0,.44.45.41.41.89a.18.18,0,0,0,.19.12.21.21,0,0,0,.14.21,9,9,0,0,1,.13,1.47,3.36,3.36,0,0,1-.27.89C52.88,43.37,52.59,43.56,52.28,43.84Z"/>
          <path d="M62,42.19a6.19,6.19,0,0,1,.23.6s-.88.59-.92.58a6.88,6.88,0,0,1-1.58.82,2.2,2.2,0,0,0-.55.13c-.31,0-.63-.14-.94-.14s-.29-.32-.4-.53a1.78,1.78,0,0,0-.87.53c-.51.11-1,.45-1.61.55-.11,0-.24,0-.34,0a1.31,1.31,0,0,1-.74-.07c-.3-.09-.31-.47-.48-.68.09-.25.11-.56.21-.81A25.4,25.4,0,0,1,55.61,41c0-.21.69-.8.71-1s.06-.29.27-.26.38.11.53.21c.06.64-.35.84-.67,1.13a1.16,1.16,0,0,1-.45.59,7.12,7.12,0,0,1-1,1.22c-.09.42-.55.5-.44,1.1.69.24,1.24-.22,1.81-.33.31-.21.63-.35.95-.53a3.76,3.76,0,0,1,.87-.55,11.35,11.35,0,0,1,1.5-1.77c.13-.14.2-.33.41-.4,0-.2.15-.24.26-.34a.77.77,0,0,0,.34-.33c.07,0,.31-.26.41-.06.28,0,.22.52.12.67s-.05,0-.07.06-.05.15-.12.28c-.34.38-.66.78-1,1.13s-1.25,1.07-1.36,1.64a1.17,1.17,0,0,0,.73.14,5.29,5.29,0,0,0,1.86-1A7.3,7.3,0,0,1,62,42.19Z"/>
          <path d="M71.84,40.47s-.83.92-.84.92c-.2.09-2.52,1.18-2.55,1.26a1.17,1.17,0,0,0-.6.34,13.82,13.82,0,0,0-1.25.71,2.24,2.24,0,0,0-.39.14c0,.17-.38.06-.42.21h-.48a2.62,2.62,0,0,1-.74-.07,4.62,4.62,0,0,1-.74-1.2,18.15,18.15,0,0,1-1.68,2.09c.05.21-.14.26-.13.46a15.63,15.63,0,0,0-1.68,2.35.21.21,0,0,0-.14.21c-.18.28-.43.51-.6.8-.38.63-1.85,3.1-2.64,3.1h-.05c-.23-.26-.13-.89-.14-1.21a6.81,6.81,0,0,0,.35-1.08c.15-.1,0-.39.19-.47,0-.16.14-.26.14-.41v-.13c.18,0,.15-.3.34-.33A2.73,2.73,0,0,1,58.39,47c-.17-.43,1.88-2.76,2.08-3.3.12-.07,1.2-1.17,1.21-1.21a11.18,11.18,0,0,1,2.15-1.82,8.41,8.41,0,0,1,3.09-1.82c.45,0,.66.31.94.62,0,.08,0,.19.07.26v.06c0,.17-.07.32-.07.49l.07.13v.14A8,8,0,0,1,67.74,42a.18.18,0,0,0,.09,0,34,34,0,0,0,3.55-1.57Zm-8.47,1c-.14.12-.21.27-.41.27-.08.32-.44.41-.6.67s-.4.51-.68.68c-.18,0-.12.28-.26.33s-.28.18-.28.41c-.24,0-.41.59-.67.67,0,0-1,1.43-1.07,1.54-.1.35-.45.49-.48.88-.25.23-.28.58-.53.8v.34c-.21.14-.25.42-.4.6a2.07,2.07,0,0,1-.21.81c.07.21-.09.2-.13.34s-.07,0-.07.06.1.16.1.25a.29.29,0,0,1,0,.1c.24-.06.32-.29.41-.48a.94.94,0,0,0,.39-.53c.29-.2.35-.61.61-.82V48.3c.1-.18.29-.44.4-.62l.14,0c0-.09,0-.3.14-.28.25-.42.6-.79.87-1.21a.25.25,0,0,1,.19-.26c.09-.13.06-.29.14-.41h.14v-.14a12,12,0,0,1,1.54-2c0-.26.28-.36.34-.6a4,4,0,0,0,.69-1.23s0-.06-.09,0A.26.26,0,0,1,63.37,41.5Zm3.15-2c0,.08-.1.12-.13.19-.34,0-.42.28-.74.27a1.82,1.82,0,0,1-.52.55,5.38,5.38,0,0,1-.66,1.34,1,1,0,0,0-.24.46c.33.21.42.77.91.77s.77-.24,1.19-.24c0-.15.24-.22.36-.26a3.9,3.9,0,0,0,.61-2.1,2,2,0,0,0-.17-.86,1.46,1.46,0,0,0-.54-.12Z"/>
          <path d="M75.65,43a6.71,6.71,0,0,1-3.13,1.51,3.6,3.6,0,0,1-2.23-.52c-.32,0-.43-.42-.4-.67a2.15,2.15,0,0,1-.06-1s.06,0,.06-.07.26-.82.43-.89.14-.4.34-.47c.15-.38.53-.55.73-.87a3.12,3.12,0,0,0,1-.62c.49.05.68-.21,1.14-.19.2.15.21.33.2.6,0,.11,0,.08-.06.14s0,.34-.14.46c0,.55-.51,1.15-.56,1.64-.19.1-.33.39-.46.55s-.32.21-.4.39c-.33.11-.49.36-.82.48a2.1,2.1,0,0,0,.75.32h.14a5.49,5.49,0,0,0,2.43-.94,2.85,2.85,0,0,1,.54-.29,2,2,0,0,1,.53-.19A3,3,0,0,1,75.65,43Zm-3.18-2.8c-.41.22-.63.64-1,.81a4.9,4.9,0,0,0-.9,2,1.22,1.22,0,0,0,.55-.14,2.75,2.75,0,0,0,.4-.26,8.52,8.52,0,0,0,1.22-1.71,1.26,1.26,0,0,0,.28-.67s0-.13-.07-.13S72.58,40.09,72.47,40.15Z"/>
          <path d="M81.5,42s.18.53.18.53a5.75,5.75,0,0,1-.5.49,7.55,7.55,0,0,1-2.36,1.27,5,5,0,0,1-1.27-.07.74.74,0,0,1-.34-.07s0,0-.07-.07-.28-.25-.41-.4a2.31,2.31,0,0,1,.15-.73,14.72,14.72,0,0,1,1-1.35,2.07,2.07,0,0,0-.21-.88c-.4.1-1.57,1.77-2,1.88,0,0-.5-.37-.49-.35.21-.18.59-.67.77-.81a9.17,9.17,0,0,1,1.12-1.28c0-.15.47-.43.58-.53s0-.35.32-.25.28.52.34.88c.11.17.15.42.26.6,0,.32.21.46.21.74-.12,0-.1.2-.14.27s-.15.14-.19.2a5.51,5.51,0,0,1-.61.88c-.07.2-.33.2-.26.53a2,2,0,0,0,1.13.14,4.55,4.55,0,0,0,2-1.1C81,42.37,81.5,42.05,81.5,42Z"/>
          <path d="M95.81,43.84c0-.09-.26.19-.34.2s-.34.13-.41.28a7.52,7.52,0,0,1-5.44.6,5,5,0,0,0-1.28-.4,3.85,3.85,0,0,0-.87-.54,3.67,3.67,0,0,0-.4-.47,2,2,0,0,1-.2-1.21,1.87,1.87,0,0,1,.94-.54c.17.11.57,0,.74.14s.52,0,.53.26-.32.17-.53.14-.42-.17-.62-.14-.11.26-.26.27-.21.14-.2.34c.1.65.72.81,1.14,1.14.4,0,.61.2,1,.27.14.1.29.08.46.14s0,.06.07.06a6.44,6.44,0,0,0,1.15.14h.34a8.32,8.32,0,0,1,1.13,0,3.43,3.43,0,0,1,.88-.2,18.24,18.24,0,0,0,1.68-1,3.07,3.07,0,0,1,.54-.54.73.73,0,0,1,.19-.47,3.45,3.45,0,0,0,0-1.54,8.12,8.12,0,0,0-.48-.67c-.1-.28-.39-.38-.48-.68a2.21,2.21,0,0,1-.86-.67.57.57,0,0,1-.41-.07c-.13-.15-.32-.25-.41-.46h-.46c-.17-.23-.52-.25-.67-.48-.25.09-.38-.07-.55-.14l-.87-.33c-.14,0-.32-.07-.47-.13s-.16-.13-.2-.14-.47-.11-.74-.2a2.43,2.43,0,0,1-.2-.14,2,2,0,0,1-.4-.07,2.57,2.57,0,0,1-.27-.12,1,1,0,0,1,.13-.67c.75-.1,1.31-.41,2.08-.48.52-.32,1.52-.2,2.09-.46a7,7,0,0,0,1.75-.28,5.77,5.77,0,0,0,1.08-.06c.14,0,.24.06.39.06s.61-.07.89-.06a5,5,0,0,1,.6.06c.17,0,.4,0,.53.07s.11.12.14.14.15,0,.2,0,.3.39.47.53c0,.21.13.24.07.48s-.12.19-.07.4c-.17,0-.18.18-.26.27s-.16,0-.21.07-.07.08-.13.12a5.79,5.79,0,0,1-.6.41c-.1.1-.48.13-.48-.07s.11-.24.27-.27.1-.26.26-.26.19-.18.34-.21c0-.21.18-.17.21-.34-.15-.53-.87-.52-1.27-.8-.16,0-.1.13-.21.13s-.17-.06-.27-.06a12,12,0,0,0-3,.2c-.77.11-1.5.25-2.22.34a9.6,9.6,0,0,1-1.47.4c0,.17.22.1.33.2a4.38,4.38,0,0,0,.6.21,11,11,0,0,0,1.35.6,6.93,6.93,0,0,0,1.34.53c.07.21.33.25.48.34s0,.12.06.14.15,0,.21,0,0,.12.07.12a3.81,3.81,0,0,1,.93.68c.22.12.33.36.61.4,0,.44.45.41.4.89a.2.2,0,0,0,.2.12.21.21,0,0,0,.14.21,12,12,0,0,1,.13,1.47,3.78,3.78,0,0,1-.27.89C96.41,43.37,96.12,43.56,95.81,43.84Z"/>
          <path d="M105.91,42.39a2.16,2.16,0,0,1-1.17.89c-.2.12-.44.24-.65.34,0,0-.11.15-.12.15s-.37.06-.41.26c-.28-.09-.27.14-.48.12-.22.16-.57.18-.77.38-.11,0-.39-.08-.39.07s-.32,0-.33.13a3.17,3.17,0,0,0-1.22.18,10.27,10.27,0,0,1-1.61-.07,1.72,1.72,0,0,0-.68-.41c0-.19-.08-.4-.26-.47a6.19,6.19,0,0,1,0-.87,9.82,9.82,0,0,1,.32-1,14.55,14.55,0,0,1,1.06-1.27,3.55,3.55,0,0,1,3.24-1.34,5.64,5.64,0,0,1,.6,1.68c-.14,0,0,.23-.07.33s-.52.55-.94.2c0-.11,0-.23,0-.34s.3-.36.27-.74a1.19,1.19,0,0,0-.13-.39.9.9,0,0,0-1-.07c.07.14.07.14-.07.07s-.09.11-.14.12-.14,0-.19,0-.17.2-.34.14c0,.1-.18.13-.26.2s-.05.32-.27.21c0,.22-.16.29-.28.41-.07.33-.48.35-.53.72a.77.77,0,0,0-.34.27c-.14.55-.48.62-.28,1.29a1.28,1.28,0,0,0,.87.67,6.36,6.36,0,0,0,2.09-.26c.21-.09.49-.1.67-.2.47-.11.8-.48,1.27-.59a8.49,8.49,0,0,1,1.22-.57c.38-.2.67-.59,1.09-.75C105.87,41.78,106.1,41.78,105.91,42.39Z"/>
          <path d="M107.9,43.61c0-.1-.46.11-.48.19-.33.18-.78.25-1.15.41-.07.15-.19,0-.33.07a2.43,2.43,0,0,0-.2.14c-.35,0-.71,0-1,0,0-.18-.28-.16-.26-.39a1,1,0,0,1,0-.61,3.87,3.87,0,0,1,.7-1c.43-.37.92-1.22,1.39-1.56,0-.15.19-.21.33-.26,0-.2.21-.2.27-.34a3,3,0,0,0,.34-.28c.12-.06.08-.27.33-.2s.18.31.34.41c-.07.42-.49.49-.6.87-.35.12-.42.54-.69.74s-.67.83-1,1-.55.4-.6.82c.28.18.7-.06.88-.21a3.32,3.32,0,0,0,1.27-.47c.37-.19.7-.35,1.07-.56s.28-.31.52-.45.57-.33.92-.36c.15.43-.1.85-.73,1.18-.1.14-.32.21-.43.33S108.05,43.31,107.9,43.61Zm2.81-7.88a2.74,2.74,0,0,1,.22,1c-.19.24-.66.11-.89,0C110,36.17,110,35.61,110.71,35.73Z"/>
          <path d="M115.08,43A6.66,6.66,0,0,1,112,44.46a3.58,3.58,0,0,1-2.23-.52c-.32,0-.43-.42-.4-.67a2.15,2.15,0,0,1-.06-1s.06,0,.06-.07.26-.82.43-.89.14-.4.34-.47c.15-.38.53-.55.72-.87a3,3,0,0,0,1-.62c.49.05.69-.21,1.15-.19.2.15.21.33.2.6,0,.11,0,.08-.06.14s0,.34-.14.46c0,.55-.52,1.15-.56,1.64-.19.1-.33.39-.46.55s-.32.21-.41.39c-.32.11-.49.36-.81.48a2.13,2.13,0,0,0,.74.32h.14a5.49,5.49,0,0,0,2.44-.94,3.12,3.12,0,0,1,.53-.29,2.1,2.1,0,0,1,.53-.19A3,3,0,0,1,115.08,43Zm-3.18-2.8c-.4.22-.63.64-1,.81a4.89,4.89,0,0,0-.89,2,1.14,1.14,0,0,0,.54-.14,2.39,2.39,0,0,0,.41-.26,8.52,8.52,0,0,0,1.22-1.71,1.26,1.26,0,0,0,.28-.67s0-.13-.07-.13S112,40.09,111.9,40.15Z"/>
          <path d="M121.59,43.07c-.23.09-.29.2-.67.37s-.36.15-.62.35c-.51.36-1.16.4-1.7.74-.4,0-.91.18-1.22-.14a1.43,1.43,0,0,1,.21-.8s0-.12,0-.14,0-.11.07-.19.1,0,.12-.07a1.67,1.67,0,0,1,.14-.27c0-.07.14-.13.2-.21s0-.11,0-.13a.62.62,0,0,0,.14-.14c.14-.19.57-1,.74-1.33a10.39,10.39,0,0,0-2.2,1.49,2.38,2.38,0,0,0-.42.42c-.31.19-.4.56-.7.77-.22,0-.19.29-.4.33s-.26.24-.41.34c-.35,0-.43.18-.62-.07,0-.34.16-.46.27-.67a2.15,2.15,0,0,0,.41-.53,19.11,19.11,0,0,0,.95-1.67c.05-.24.31-1.42.38-1.58s.25-.21.58-.16c.24.23,0,1.46-.16,1.74.09,0,0,.07,0,.14h-.07c0,.19.11-.1.21-.07s0-.18.22-.13c.07-.18.27-.24.34-.4.15,0,.21-.07.33-.14a3.67,3.67,0,0,0,.54-.34c.07,0,.14-.15.21-.2a9.43,9.43,0,0,0,1.14-.67c.24-.11.82-.39,1.15-.21a.79.79,0,0,1-.33,1c0,.27-.28.21-.27.48-.2,0-.15.29-.34.33a4.19,4.19,0,0,1-.81,1.32,2.24,2.24,0,0,1-.28.48c-.19,0-.12.32-.26.4.11.18.25-.15.4-.14s.37,0,.48-.05.18-.09.33-.13a5.68,5.68,0,0,0,1.56-.69,1.31,1.31,0,0,0,.5-.25,1.59,1.59,0,0,0,.35-.31c.12,0,.31-.21.41-.25a1.92,1.92,0,0,1,.88-.38c.07.66-.08.93-.29.94s-.35.08-.37.14A5.63,5.63,0,0,1,121.59,43.07Z"/>
          <path d="M130.39,42.39a2.18,2.18,0,0,1-1.18.89c-.2.12-.44.24-.65.34,0,0-.11.15-.12.15s-.37.06-.41.26c-.28-.09-.26.14-.47.12-.23.16-.58.18-.77.38-.12,0-.4-.08-.4.07s-.32,0-.33.13a3.17,3.17,0,0,0-1.22.18,10.27,10.27,0,0,1-1.61-.07,1.76,1.76,0,0,0-.67-.41c0-.19-.09-.4-.27-.47a8.19,8.19,0,0,1,0-.87c0-.28.26-.67.32-1a14.55,14.55,0,0,1,1.06-1.27,3.55,3.55,0,0,1,3.24-1.34,5.64,5.64,0,0,1,.6,1.68c-.14,0,0,.23-.07.33s-.52.55-.94.2c0-.11,0-.23,0-.34s.3-.36.27-.74a1.19,1.19,0,0,0-.13-.39.89.89,0,0,0-1-.07c.07.14.07.14-.07.07s-.1.11-.14.12-.14,0-.2,0-.17.2-.34.14c0,.1-.18.13-.26.2s0,.32-.27.21c0,.22-.15.29-.28.41-.07.33-.48.35-.53.72a.77.77,0,0,0-.34.27c-.14.55-.47.62-.28,1.29a1.3,1.3,0,0,0,.87.67,6.36,6.36,0,0,0,2.09-.26c.21-.09.49-.1.67-.2.48-.11.8-.48,1.27-.59a8.49,8.49,0,0,1,1.22-.57c.38-.2.68-.59,1.1-.75C130.34,41.78,130.57,41.78,130.39,42.39Z"/>
          <path d="M135.48,43a6.66,6.66,0,0,1-3.12,1.51,3.56,3.56,0,0,1-2.23-.52c-.32,0-.43-.42-.41-.67a2.15,2.15,0,0,1-.05-1s.05,0,.05-.07.27-.82.44-.89.14-.4.33-.47c.16-.38.54-.55.73-.87a3.12,3.12,0,0,0,1-.62c.49.05.69-.21,1.15-.19.2.15.21.33.2.6,0,.11,0,.08-.06.14s0,.34-.14.46c0,.55-.52,1.15-.56,1.64-.2.1-.34.39-.46.55s-.32.21-.41.39c-.32.11-.49.36-.81.48a2.13,2.13,0,0,0,.74.32H132a5.53,5.53,0,0,0,2.44-.94,2.51,2.51,0,0,1,.53-.29,2.1,2.1,0,0,1,.53-.19A3,3,0,0,1,135.48,43Zm-3.18-2.8c-.4.22-.63.64-1,.81a4.89,4.89,0,0,0-.89,2,1.14,1.14,0,0,0,.54-.14,2.39,2.39,0,0,0,.41-.26,8.52,8.52,0,0,0,1.22-1.71,1.34,1.34,0,0,0,.28-.67s0-.13-.07-.13S132.41,40.09,132.3,40.15Z"/>
          <path d="M155.48,32.37c.28,0,.29.25.28.55a.79.79,0,0,1-.41.33,3.76,3.76,0,0,1-.74.8c-.52.51-.94,1.08-1.49,1.56a4.55,4.55,0,0,1-.67,1c-.08.18,0,.25-.15.46s-.17.26-.38.26a5.51,5.51,0,0,0-.6.68c-.25.18-.28.57-.6.67-.05.32-.27.46-.41.67s-.24.45-.41.62a2,2,0,0,1-.4.6c0,.14-.13.21-.2.34s0,.33-.21.26a.94.94,0,0,1-.27.6c-.08.2-.42,1.1-.53,1.27,0,.58-.5,1.35-.6,1.82-.29,0-.57.18-.8,0-.11-.4,0-.49.13-.82s.57-1.79.73-2a8,8,0,0,0-.54-1.34c0-.16-.23-.13-.19-.34a4.76,4.76,0,0,0-1.49-.87c-.24,0-.33.28-.47.48s-.16.18-.27.33c-.41.54-1,1.21-1.47,1.74-.07.28-.28.41-.34.67-.35.17-.43.61-.81.75a1.26,1.26,0,0,1-.34.6c-.09,0-.09.22-.14.33s-.19.24-.26.34-.1.08-.13.14,0,.13-.07.2-.12.05-.14.07a1.5,1.5,0,0,1-.33.6c0,.31-.12.39,0,.62-.37.21-.42.74-1,.72-.21-.21-.1-.54-.07-.86a2.71,2.71,0,0,0,.47-.87c.42-.48.69-1.11,1.15-1.56.09-.33.37-.47.46-.8s-.19.17-.19-.07a.2.2,0,0,1-.21-.14c-.18,0-.21-.22-.39-.26s-.13-.3-.28-.34c0-.27-.14-.39-.2-.6a4.24,4.24,0,0,1,.2-1.08c.26-.15.4-.45.61-.67s.34-.28.6-.34c.1,0,.1-.21.27-.19s.25-.07.27-.21A.79.79,0,0,0,143,39c.1-.1.31-.1.4-.21a5.37,5.37,0,0,1,1.55,0c.52-.09.56-.65,1-.8a4.8,4.8,0,0,1,1.34-2c-.05-.18.1-.17.07-.34.16,0,.19-.18.27-.26s.15,0,.2-.07,0-.14.07-.13c.07-.28.3-.36.53-.48.59.79-.63,1.15-.73,1.9-.28.12-.36.44-.62.6,0,.35-.4.39-.39.8-.21.08-.29.26-.41.4s-.23.3-.33.48c.1.27.49.22.74.34s.34.23.46.4a2.56,2.56,0,0,0,.48.39,1.2,1.2,0,0,0,.41.55c0,.29.22.39.26.67.38-.24.42-.84.8-1.08.18-.44.5-.75.67-1.2a4.36,4.36,0,0,0,.41-.55,4.39,4.39,0,0,0,.41-.53c0-.2.39-.25.4-.48a1.38,1.38,0,0,1,.2-.33c0-.06.17-.21.26-.2,0-.28.24-.35.28-.6.26-.17.41-.45.68-.62a2.26,2.26,0,0,1,.67-.94,5,5,0,0,1,.8-.79,6.08,6.08,0,0,1,.33-.62c.4-.31,1-.43,1.15-.94Zm-11.77,7c-.24.16-.57.16-.67.28s-.1,0-.13,0-.12.11-.26.13h-.28c0,.15-.19.19-.27.26a7.67,7.67,0,0,0-.8.82.29.29,0,0,1-.14.26v.6a4.26,4.26,0,0,0,.34.55,3.44,3.44,0,0,0,.53.34c.31-.06.38-.34.55-.55s.35-.36.4-.67a3.39,3.39,0,0,0,.87-1.07c.16.06.14-.15.2-.21s.11,0,.14-.07c.18-.15.24-.43.4-.6A3.92,3.92,0,0,0,143.71,39.36Z"/>
          <path d="M154.14,43.61c0-.1-.46.11-.47.19-.34.18-.79.25-1.15.41-.07.15-.2,0-.34.07a2.43,2.43,0,0,0-.2.14c-.35,0-.71,0-1,0,0-.18-.28-.16-.27-.39a1.05,1.05,0,0,1,0-.61,3.87,3.87,0,0,1,.7-1c.44-.37.93-1.22,1.39-1.56,0-.15.19-.21.33-.26,0-.2.21-.2.27-.34a2.3,2.3,0,0,0,.34-.28c.12-.06.08-.27.33-.2s.19.31.34.41c-.07.42-.49.49-.6.87-.35.12-.42.54-.69.74s-.67.83-1,1-.55.4-.6.82c.28.18.7-.06.88-.21a3.32,3.32,0,0,0,1.27-.47c.37-.19.71-.35,1.07-.56s.28-.31.52-.45.57-.33.92-.36c.16.43-.1.85-.73,1.18-.09.14-.32.21-.43.33S154.3,43.31,154.14,43.61ZM157,35.73a2.74,2.74,0,0,1,.21,1c-.19.24-.66.11-.89,0C156.27,36.17,156.27,35.61,157,35.73Z"/>
          <path d="M164.38,41.39c-.44.14-.74.37-1.16.53h-.06c-.14,0-.2.12-.35.07,0,.13-.13.1-.21.19s-.41,0-.53.22c-.3.17-1.33.63-1.59.8a5.63,5.63,0,0,0-1,.38.93.93,0,0,1-.34.46.16.16,0,0,1,.07.14c0,.14-.09.24-.07.41-.14,0-.39.63-.53.79a2.42,2.42,0,0,1-.27.75.2.2,0,0,0-.14.21c-.12.49-.43.91-.6,1.4v0c0,.17-.24.14-.19.35a5.42,5.42,0,0,1-.48.89c0,.12-.9,1.4-1,1.68a3,3,0,0,0-.53.73c-.31.25-.71.77-1.08.88-.08.25-1.06.42-1.3.42l-.18,0a.21.21,0,0,0-.2-.14,4.74,4.74,0,0,1-.41-1.07v-.06a5,5,0,0,0,.07-.69,2.23,2.23,0,0,0,.27-.8,9.55,9.55,0,0,1,1.48-2.22c0-.21.2-.28.34-.39a4,4,0,0,1,.87-1,1.42,1.42,0,0,1,.53-.53,7.21,7.21,0,0,1,1.49-1.37l.19-.06a6.74,6.74,0,0,0,.62-.47l.11-.14.15-.24a1.56,1.56,0,0,0-.81.26c-.38,0-.75.14-1.13.14-.17,0-.25-.11-.48-.07-.19-.14-.33-.35-.53-.47v-.06c0-.17-.08-.32-.08-.49a3.61,3.61,0,0,1,.42-1.26,5.18,5.18,0,0,0,.79-1l1.76-1.07h.19a2.71,2.71,0,0,1,1.49-.4,2.45,2.45,0,0,1,1.07.19c.12.24.37.37.47.61v.4c0,.32-.44.55-.68.67-.08.16-.12.33-.19.48s-.2.34-.2.49v.06l.17.08c.1,0,.18.1.21,0a11.68,11.68,0,0,1,1.32-.52c.08-.07.12-.07.19-.15a2.37,2.37,0,0,0,.55-.18,4.48,4.48,0,0,1,1.58-.55s0,0,0,0C164.52,41,164.29,41.18,164.38,41.39Zm-8.92,5.48a5.51,5.51,0,0,1-.87.87c-.26.53-1,1.41-1.35,2.08-.15.27-.11.68-.33.89a.53.53,0,0,1,.05.18v.87c0,.14.23,0,.14.22a.23.23,0,0,0,.14,0,1.44,1.44,0,0,0,.6-.18l.07-.12a11.7,11.7,0,0,0,1.15-1,9,9,0,0,1,1.07-1.54c.11,0,0-.33.21-.26a21.06,21.06,0,0,1,1.34-2.69,4,4,0,0,0,.34-.77c0-.37.33-.63.33-1,0,0,0-.06,0-.06A15.35,15.35,0,0,0,155.46,46.87Zm4.37-7a3,3,0,0,0-1.07.34c-.41,0-1.22.64-1.62.79a1.32,1.32,0,0,1-.47.55,1.84,1.84,0,0,1-.47.6c0,.26-.2.48-.2.73a.82.82,0,0,0,.07.28,1.24,1.24,0,0,0,.45.14c.45,0,.87-.32,1.29-.28a.73.73,0,0,1,.54-.2,2.84,2.84,0,0,1,.94-.67,5.09,5.09,0,0,1,1.08-1.75.72.72,0,0,1,.41,0v0C160.78,40,160.08,39.88,159.83,39.88Z"/>
          <path d="M167.44,39.61c-.6.16-.77.76-1.41.87a6.27,6.27,0,0,1-.75.88c-.05,0-.16,0-.26.13a4.45,4.45,0,0,1-.6.55c-.19.3-.56.42-.61.87-.4.11-.57.51-.81.81-.1.12-.33.26-.33.4s-.4.47-.42.47c-.23,0-.24.21-.48.21s-.18-.28-.18-.42c0-.48.47-.75.67-1.14s.52-1.06.74-1.08c0-.15.07-.28.21-.33a20.3,20.3,0,0,1,1.54-2c.27-.11.27-.49.53-.6.43-.49.79-1,1.35-1.61.06-.06.17-.09.21-.14s0-.14.06-.2.43-.35.61-.53.34-.46.53-.67a16.29,16.29,0,0,1,1.83-1.63.22.22,0,0,0,.14.06c.08,0,.16-.05.23-.05s.16,0,.16.12c0,.29-.24.35-.34.54-.35.16-.26.7-.87.75-.18.26-.84.85-.84.91l0,0s-.13,0-.13.09,0,.07,0,.08-.79,1-1,1-.06.17-.08.21-.21.1-.21.14,0,.07,0,.1-.35.08-.35.31a.2.2,0,0,0,0,.05.55.55,0,0,0-.35.41c-.37.06-.36.52-.72.6a1.64,1.64,0,0,1-.61.94c-.12.06-.21.1-.21.27l.09,0a4.8,4.8,0,0,0,1.06-1h.07c.2,0,.27-.33.46-.35s.37-.35.61-.4c.39-.21.65-.56,1.14-.68a4.62,4.62,0,0,0,.34.41c0,.31-.27.48-.27.66s-.56.83-.61.88a1.87,1.87,0,0,0-.39.67c-.31.16-.37.68-.75,1a10.39,10.39,0,0,1-.67,1.08s0,.06,0,.07.09.14.09.17,0,0-.06,0a.46.46,0,0,0-.14.21.47.47,0,0,0,.45.22c.2,0,.36,0,.59,0s.47-.17.75-.31.59-.41,1-.56a2.09,2.09,0,0,0,.65-.48,1.9,1.9,0,0,1,.72-.48.31.31,0,0,1,.27.31c0,.41-.58.7-.87,1a2.28,2.28,0,0,1-.66.43,6.89,6.89,0,0,1-2.65.85c-.43,0-.9-.11-.9-.56,0-.29.09-.46.09-.81.19,0,.11-.38.33-.41,0,0,0,0,0,0,0-.25.31-.45.42-.62s0-.32.41-.67c.1-.36.4-.53.53-.87A3.84,3.84,0,0,0,167.44,39.61Z"/>
          <path d="M173.22,43.61a3.14,3.14,0,0,0,0-.66,10.75,10.75,0,0,0,1.7-1.1c.59-.37,1.38-1.09,2-1.41.34-.2.63-.43,1-.63a2.3,2.3,0,0,1,.94-.46,2.5,2.5,0,0,0,.26.33c.07.24-.11.44-.19.61a8.63,8.63,0,0,1-.48.75s0,.11,0,.13a7.93,7.93,0,0,0-.83,1.54c-.18.17-.4.31-.46.6.15.2.39-.1.67,0l1.81-.46c.67-.31,1.39-.62,2-1,0,.29.06.66,0,.57-.15.06-.36.3-.5.35s-.17.13-.21.13a.93.93,0,0,0-.2.07,5.41,5.41,0,0,0-.5.35.58.58,0,0,1-.21.07,3.27,3.27,0,0,1-.47.18c-.15,0-.19.09-.4.14a3.87,3.87,0,0,0-.94.32,11.13,11.13,0,0,1-2.42.4c-.27,0-.52-.19-.82-.2a1.7,1.7,0,0,0-.67-.48.8.8,0,0,1,0-.57c-.21-.06-.21.1-.34.13s-.25,0-.26.14C173.43,43.56,173.22,43.66,173.22,43.61Zm3.14-.63a3.87,3.87,0,0,0,.88-1.32c.18-.07.24-.55.41-.62,0-.15,0-.25.14-.26s0-.17-.14-.14-.12.11-.13.19c-.49.13-.56.65-1.06.76a19.71,19.71,0,0,1-1.78,1.34c.33.28.54.65,1.13.58A.93.93,0,0,0,176.36,43Z"/>
          <path d="M188.58,42.39a2.16,2.16,0,0,1-1.17.89c-.2.12-.44.24-.65.34,0,0-.11.15-.12.15s-.37.06-.41.26c-.28-.09-.27.14-.48.12-.22.16-.57.18-.77.38-.11,0-.39-.08-.39.07s-.32,0-.34.13a3.15,3.15,0,0,0-1.21.18,10.27,10.27,0,0,1-1.61-.07,1.72,1.72,0,0,0-.68-.41c0-.19-.08-.4-.26-.47a8.14,8.14,0,0,1-.05-.87c0-.28.27-.67.33-1a14.55,14.55,0,0,1,1.06-1.27,3.55,3.55,0,0,1,3.24-1.34,5.64,5.64,0,0,1,.6,1.68c-.14,0,0,.23-.07.33s-.52.55-.94.2a1.93,1.93,0,0,1,0-.34c0-.22.3-.36.27-.74a1.19,1.19,0,0,0-.13-.39.9.9,0,0,0-1-.07c.07.14.07.14-.07.07s-.1.11-.14.12-.14,0-.19,0-.17.2-.34.14c0,.1-.18.13-.27.2s0,.32-.26.21c0,.22-.16.29-.28.41-.07.33-.48.35-.53.72a.77.77,0,0,0-.34.27c-.14.55-.48.62-.28,1.29a1.28,1.28,0,0,0,.87.67A6.27,6.27,0,0,0,184,44c.21-.09.5-.1.68-.2.47-.11.8-.48,1.27-.59a8.49,8.49,0,0,1,1.22-.57c.38-.2.67-.59,1.09-.75C188.54,41.78,188.77,41.78,188.58,42.39Z"/>
          <path d="M192.46,39.61c-.6.16-.77.76-1.42.87a6.38,6.38,0,0,1-.74.88c-.05,0-.17,0-.26.13a4,4,0,0,1-.61.55c-.18.3-.56.42-.6.87-.4.11-.57.51-.81.81-.1.12-.34.26-.34.4s-.39.47-.42.47c-.22,0-.24.21-.47.21s-.19-.28-.19-.42c0-.48.48-.75.68-1.14s.51-1.06.74-1.08c0-.15.07-.28.21-.33a20.3,20.3,0,0,1,1.54-2c.27-.11.27-.49.53-.6.42-.49.79-1,1.35-1.61,0-.06.17-.09.21-.14s0-.14,0-.2c.19-.2.44-.35.62-.53s.34-.46.53-.67a16.16,16.16,0,0,1,1.82-1.63.27.27,0,0,0,.14.06c.09,0,.17-.05.24-.05s.16,0,.16.12c0,.29-.24.35-.34.54-.35.16-.27.7-.87.75-.18.26-.84.85-.84.91l-.06,0s-.12,0-.12.09,0,.07,0,.08-.8,1-1,1-.06.17-.09.21-.21.1-.21.14,0,.07,0,.1-.35.08-.35.31a.2.2,0,0,0,0,.05.55.55,0,0,0-.35.41c-.38.06-.36.52-.73.6a1.64,1.64,0,0,1-.6.94c-.13.06-.21.1-.21.27l.08,0a4.56,4.56,0,0,0,1.07-1h.07c.19,0,.27-.33.46-.35s.37-.35.6-.4c.4-.21.66-.56,1.15-.68a4.62,4.62,0,0,0,.34.41c0,.31-.27.48-.27.66s-.56.83-.61.88a2,2,0,0,0-.4.67c-.3.16-.36.68-.74,1a10.39,10.39,0,0,1-.67,1.08.17.17,0,0,0,0,.07c0,.09.08.14.08.17s0,0-.05,0a.46.46,0,0,0-.14.21.47.47,0,0,0,.45.22c.19,0,.36,0,.59,0,.08-.1.47-.17.75-.31s.59-.41.95-.56a2,2,0,0,0,.66-.48,1.9,1.9,0,0,1,.72-.48.31.31,0,0,1,.26.31c0,.41-.57.7-.87,1a2.21,2.21,0,0,1-.65.43,6.89,6.89,0,0,1-2.65.85c-.44,0-.9-.11-.9-.56,0-.29.09-.46.09-.81.19,0,.11-.38.33-.41,0,0,0,0,0,0,0-.25.31-.45.42-.62s0-.32.41-.67c.09-.36.4-.53.53-.87A3.84,3.84,0,0,0,192.46,39.61Z"/>
          <path d="M195.3,40.83a2.8,2.8,0,0,1,.34-.26c.4-.06.57-.35.93-.47s.35-.42.55-.61a5.4,5.4,0,0,1,1.07-.27c.22.17.7.35.68.74a3,3,0,0,1,.17.73s.08.06.2,0a.61.61,0,0,0,.21-.06,1,1,0,0,1,.57,0,1.53,1.53,0,0,1-.34.58,1,1,0,0,1-.19.07c-.23.09-.09,0-.3.1s-.25.11-.25.13a4.15,4.15,0,0,1-.81,1.2c-.09.09-.44.28-.39.41-.17,0-.12.15-.28.34a7.67,7.67,0,0,1-1.61,1,3.62,3.62,0,0,1-1.49-.07,2.77,2.77,0,0,1-.14-1.27c.07-.15.13-.34.21-.48s.17-.08.2-.14,0-.18.07-.26c.17-.3.22-.62.46-.84A3.08,3.08,0,0,0,195.3,40.83Zm.74.81c-.17,0-.19.17-.26.27-.28.35-.48.79-.75,1.08,0,.29-.19.39-.14.74h.69a2.61,2.61,0,0,0,.67-.33c.06-.06.06,0,.14-.07s.34-.37.6-.41a5.87,5.87,0,0,1,.41-.46,2,2,0,0,1,.46-.41c.1-.17.21-.17.21-.39a2.27,2.27,0,0,1-.95.18c-.1-.08-.29-.06-.48-.06s-.3-.28-.53-.33C196.1,41.53,196,41.53,196,41.64Zm1.68-1.34c-.08.17-.28.22-.47.27s-.38.33-.2.47c0-.11.1,0,.07.13a2.65,2.65,0,0,0,1.22-.2c0-.26.06-.64-.07-.81a3.5,3.5,0,0,0-.48-.06C197.78,40.19,197.69,40.19,197.72,40.3Z"/>
          <path d="M201.29,40.83a2.8,2.8,0,0,1,.34-.26c.4-.06.57-.35.94-.47a5.23,5.23,0,0,0,.54-.61,5.4,5.4,0,0,1,1.07-.27c.22.17.7.35.68.74a2.56,2.56,0,0,1,.17.73s.09.06.2,0a.61.61,0,0,0,.21-.06,1,1,0,0,1,.57,0,1.4,1.4,0,0,1-.33.58l-.2.07c-.22.09-.08,0-.29.1s-.26.11-.26.13a4,4,0,0,1-.81,1.2c-.08.09-.43.28-.39.41-.17,0-.11.15-.28.34a7.67,7.67,0,0,1-1.61,1,3.62,3.62,0,0,1-1.49-.07,2.77,2.77,0,0,1-.14-1.27c.07-.15.13-.34.21-.48s.17-.08.2-.14,0-.18.07-.26c.17-.3.22-.62.46-.84A3.08,3.08,0,0,0,201.29,40.83Zm.74.81c-.16,0-.19.17-.26.27-.28.35-.48.79-.75,1.08,0,.29-.19.39-.14.74h.69a2.61,2.61,0,0,0,.67-.33c.06-.06.06,0,.14-.07s.34-.37.61-.41a4.25,4.25,0,0,1,.4-.46,2,2,0,0,1,.46-.41c.1-.17.21-.17.21-.39a2.27,2.27,0,0,1-.95.18c-.1-.08-.29-.06-.47-.06s-.31-.28-.54-.33C202.09,41.53,202,41.53,202,41.64Zm1.68-1.34c-.08.17-.28.22-.47.27s-.38.33-.2.47c0-.11.1,0,.07.13a2.65,2.65,0,0,0,1.22-.2c0-.26.06-.64-.07-.81a3.5,3.5,0,0,0-.48-.06C203.77,40.19,203.69,40.19,203.71,40.3Z"/>
          <path d="M211.58,42.54a8.25,8.25,0,0,1-.84.83c-.18.08-.32.36-.5.36s-.65.53-.7.53-.34.27-.51.27H209c-.13,0-.64.23-.84.28a4.43,4.43,0,0,0-.6.07,2.41,2.41,0,0,1-1.08-.34,2,2,0,0,1-.21-.81,4.62,4.62,0,0,1,.81-2.15c.08-.14.15-.36.27-.54.54-.9,1.15-1.82,1.75-2.69a1.58,1.58,0,0,0,.21-.41,1.84,1.84,0,0,0,.67-.94c.77-.63.85-1.14,2.07-2.28.38-.35,1.15-.6,1.15-.81.17,0,.23.08.38.08h.1a2.11,2.11,0,0,1,.14.61,4.92,4.92,0,0,1-.42,1.62c-.07.12-.2.16-.2.33a8.41,8.41,0,0,1-2.09,3.15,3.22,3.22,0,0,0-.79.94,2.47,2.47,0,0,0-1,.74c-.13,0-.13,0-.14.14a3.42,3.42,0,0,0-.81.41c-.17.22-.54.27-.61.6-.29.05-.36.31-.67.34a3,3,0,0,0-.14.78c0,.45.31.49.59.49A5.09,5.09,0,0,0,210.17,43a8.54,8.54,0,0,0,1.51-1.21A3.9,3.9,0,0,1,211.58,42.54Zm.9-7.42c-.31.38-.74.74-1,1.08-.15.19-.67.65-.67.72,0,.23-.2.23-.2.48a1,1,0,0,0-.61.81c-.47.25-.63.84-.73.94s-.18,0-.21.07c-.09.59-.34.58-.34.72s-.14,0-.14.11-.21.45-.31.45-.16.42-.16.36a2.69,2.69,0,0,1-.51.81c.51,0,1.61-1.23,2-1.45h.09c.15,0,.65-.64.82-.81.55-.55,1-1.18,1.54-1.75a6.47,6.47,0,0,1,.48-1.08c.08,0,.07,0,.07-.1a2.81,2.81,0,0,1,.46-1,.49.49,0,0,1,0-.12c0-.21.12-.35.12-.49s-.11-.17-.21-.17S212.62,35,212.48,35.12Z"/>
        </g>
        <g>
          <path class="cls-1" d="M12.3,28.45l.4.54c.23,0,.46-.06.68-.12A7.4,7.4,0,0,1,16,28.62a11.4,11.4,0,0,0,1.65-.08c.55,0,1.1-.12,1.64-.11a1.35,1.35,0,0,1,.73.28.56.56,0,0,1,.19.86A2.77,2.77,0,0,0,19.83,31a14.88,14.88,0,0,1-.09,1.88,6,6,0,0,1-.21.81c-.06.31-.1.63-.14.94l-.18,1.29c0,.26-.09.53-.12.79-.08.69-.17,1.37-.22,2.06a5.09,5.09,0,0,0,.06.87c0,.22.06.43.07.64a10.18,10.18,0,0,0,.06,1.11c.07.44.37.59.79.46a1,1,0,0,1,.34-.08,5.75,5.75,0,0,0,2.35-.48c.9-.37,1.34.18,1.44,1a13,13,0,0,1,0,1.53,1,1,0,0,1-1.24,1.06,8.08,8.08,0,0,1-2.29-.74,12.05,12.05,0,0,0-1.62-.44,1.44,1.44,0,0,0-.87,0,1.79,1.79,0,0,0-.19.11,1.35,1.35,0,0,0,.19.42c.58.59,1.16,1.18,1.79,1.72a5.7,5.7,0,0,0,1.23.75,2,2,0,0,0,.7.08,1.05,1.05,0,0,1-.47,1.32,1.72,1.72,0,0,1-1.2.14c-.27,0-.55,0-.83-.06a2.56,2.56,0,0,1-.78-.14,1.71,1.71,0,0,0-1-.12,1.57,1.57,0,0,1-1.21-.35,2.63,2.63,0,0,1-.94-1.35c-.23-.7-.54-1.38-.79-2.08-.16-.42-.54-.47-.89-.57a2.72,2.72,0,0,0-.3,0,1.45,1.45,0,0,0-1.54.59c-.4.5-.94.9-1.36,1.39a7.19,7.19,0,0,0-.86,1.26,1.78,1.78,0,0,1-.92.78A15.61,15.61,0,0,1,7,48.06a1.6,1.6,0,0,1-.38,0,2.49,2.49,0,0,0-.61,0,3.74,3.74,0,0,1-2.56-.39c-.29-.13-.6-.2-.9-.33-.12-.05-.31-.2-.29-.27s.14-.39.25-.41a4.19,4.19,0,0,1,1.06-.05,8,8,0,0,0,3.26-.25,4.21,4.21,0,0,0,1.26-.8,11.76,11.76,0,0,0,1-1.1l.14,0L9,43.84l-.15-.05A14,14,0,0,1,6.11,44a3.73,3.73,0,0,0-2.63,1.33,2.22,2.22,0,0,1-.81.47,6.47,6.47,0,0,1-1,.46.79.79,0,0,1-.87-.12,1.05,1.05,0,0,1-.24-1.1,12.29,12.29,0,0,0,.28-1.47c0-.15-.08-.32-.09-.48l0-2.72c0-.21,0-.41.28-.49a.5.5,0,0,1,.55.19c.34.38.68.77,1,1.12a.53.53,0,0,0,.43.17,3.74,3.74,0,0,1,1.75.29,2.3,2.3,0,0,0,1,.06c.2,0,.37-.37.45-.61a5.39,5.39,0,0,0,.1-.91c0-.21.1-.42.14-.63a3.11,3.11,0,0,0,.08-.44c0-.26,0-.52,0-.77a1.11,1.11,0,0,1,.27-.78c.27-.33.25-.49,0-.8a1,1,0,0,1-.28-1.15,1.47,1.47,0,0,0,.06-.42c0-.49.09-1,.13-1.47h.08v0a4.08,4.08,0,0,1-.42-2A2.28,2.28,0,0,0,6,30.6l-.3-.51a2.23,2.23,0,0,1,.14-.27c.25-.33.5-.66.76-1a.49.49,0,0,1,.79-.07A.66.66,0,0,0,8,29l1.4-.14a1.29,1.29,0,0,1,.34,0,.79.79,0,0,0,.69-.27.4.4,0,0,0,.09-.52.63.63,0,0,0-.41-.27,3.26,3.26,0,0,0-.76.07l-.38.05c-.64.06-1.27.13-1.91.17A1.58,1.58,0,0,1,6.53,28c-.13,0-.27-.11-.4-.09l-1.89.27a3.3,3.3,0,0,0-.52.13c-.17.07-.34.16-.51.25a7.1,7.1,0,0,1-.92.45.83.83,0,0,1-.82-.3,2.27,2.27,0,0,1-.34-.51c.18-.46.38-.91.53-1.37a2.18,2.18,0,0,0,.07-.63c0-.11-.06-.23-.07-.34,0-.56.41-.92.89-.67a3.5,3.5,0,0,0,1.89.35,18.46,18.46,0,0,1,3.4.23,18.46,18.46,0,0,0,2.22.12c.52,0,.68-.28.43-.75a2.45,2.45,0,0,0-1-1c-.41-.24-.52-.43-.41-.63a.8.8,0,0,1,1-.25.62.62,0,0,0,.95-.28,4.83,4.83,0,0,0-.58-.25c-.48-.17-.58-.5-.3-.92s.52-.79.77-1.19a3.63,3.63,0,0,0,.46-1.53c.09-.75.2-1.5.29-2.24a4.52,4.52,0,0,0-.2-1.86,3.23,3.23,0,0,1-.14-.51c-.06-.57.12-.82.68-.92a5.76,5.76,0,0,0,1.32-.36,1.17,1.17,0,0,1,1.1.08,1.23,1.23,0,0,0,.62.17,11.53,11.53,0,0,0,1.95,0,9.69,9.69,0,0,0,2.11-.51,2.63,2.63,0,0,1,1.08-.16.9.9,0,0,1,.76,1.11,3.33,3.33,0,0,0,0,1.44,3.17,3.17,0,0,1,0,1.56,1.05,1.05,0,0,0,0,.31c0,.7,0,1.41,0,2.11,0,.15,0,.31,0,.46.06.53.16,1.06.17,1.6a7.29,7.29,0,0,0,.2,2,.89.89,0,0,1-.06.48,1.71,1.71,0,0,0-.05,1.13l.43-.06a1.27,1.27,0,0,1,1.36.64l.22.36a.9.9,0,0,1-.12,1.33,3.7,3.7,0,0,1-.48.49.72.72,0,0,1-.78.09,5,5,0,0,0-1.42-.44,11.72,11.72,0,0,0-3.13,0,11,11,0,0,1-2.14.16,9.34,9.34,0,0,1-1.48-.18c-.43-.07-.53,0-.79.34S12.5,28.14,12.3,28.45Zm4.45,13.3c.27-.28.28-.32.07-.8a1.63,1.63,0,0,1-.05-1.19,1.05,1.05,0,0,0-.06-.93.46.46,0,0,1,0-.38A3,3,0,0,0,17,37c0-.54,0-1.08,0-1.62s0-1.33-.05-2a2.22,2.22,0,0,0-.32-.77c0-.07-.17-.08-.18-.09a6.8,6.8,0,0,1-.85.43,7.73,7.73,0,0,1-1.41.38,11,11,0,0,1-1.52.08c-.38,0-.76-.11-1.14-.1a2.7,2.7,0,0,1-1.13-.13.58.58,0,0,0-.68.13,2.15,2.15,0,0,0-.39,1.54.92.92,0,0,0,.26.07,21.7,21.7,0,0,0,4-.23,10.43,10.43,0,0,1,1.94-.14c.53,0,.81.35.64.8a1.55,1.55,0,0,1-1,1c-.69.18-1.4.29-2.1.41a1.61,1.61,0,0,1-.38,0c-.71-.07-1.43-.1-2.13-.24a1.29,1.29,0,0,0-1.41.5c-.16.2-.33.35-.23.63a1.16,1.16,0,0,0,.81.66l2.73-.08.38,0c.69-.11,1.38-.24,2.07-.34a5.72,5.72,0,0,1,.92-.08.81.81,0,0,1,.8.82.46.46,0,0,1-.36.52c-.32.07-.64.14-1,.19a9,9,0,0,0-1.28.21,4,4,0,0,1-1.74.14l-.23,0-2.19.07a.59.59,0,0,0-.64.49c-.13.37-.27.73-.42,1.1a.48.48,0,0,0,.17.68,3.61,3.61,0,0,1,.58-.53,6.53,6.53,0,0,1,1-.52.87.87,0,0,1,1.14.33c.16.24.27.51.45.84l.42-.1a3.51,3.51,0,0,1,.53-.15,3.25,3.25,0,0,1,.54,0,.74.74,0,0,0,.75-.5,7.11,7.11,0,0,0,.32-1,.52.52,0,0,1,.74-.45C15.8,40.47,16,41.28,16.75,41.75Zm3.43-16.66A1.27,1.27,0,0,0,19,24a4.18,4.18,0,0,1-.79-.11,2.82,2.82,0,0,1-.77-.4.54.54,0,0,1-.19-.44c0-.12.26-.21.42-.24a1.13,1.13,0,0,0,1-1.08c0-.28,0-.56,0-.84a.48.48,0,0,0-.74-.51,3.11,3.11,0,0,1-1.66.37c-.1,0-.21,0-.31,0-.55,0-1.11,0-1.66-.09a.7.7,0,0,0-.84.43c-.21.48-.42.95-.64,1.42s-.29.55.14.94a.93.93,0,0,1,.33,1.15c-.08.21-.13.5.1.64.41.26.86.47,1.3.7h0c.7,0,1.4-.07,2.1-.13.43,0,.86-.14,1.29-.15a7.79,7.79,0,0,0,1.91-.5S20.14,25.12,20.18,25.09Zm-5.3,6.45v.05h.53c.88,0,.92,0,.8-.91a.86.86,0,0,0-1-.78c-.94.12-1.87.27-2.81.35a15.69,15.69,0,0,1-1.68,0l-.34,0c-.62.06-.83.54-1,1s0,.67.44.64c.84,0,1.68-.11,2.52-.18ZM16.68,19V19L18,19a.6.6,0,0,0,.6-.49c0-.34.05-.69.06-1s-.13-.5-.45-.47a2.38,2.38,0,0,0-.69.2,5.74,5.74,0,0,1-.94.31c-.58.05-1.17,0-1.76,0-.31,0-.44.12-.46.44s0,.56,0,.85a.34.34,0,0,0,.36.36,1.93,1.93,0,0,0,.34,0Zm1.63-3a.53.53,0,0,0,.43-.58.48.48,0,0,0-.44-.5,2.3,2.3,0,0,0-.45-.05c-.82,0-1.63,0-2.45,0-.33,0-.67-.05-.9.27-.09.6,0,.71.58.64a9.07,9.07,0,0,0,.91-.14c.4-.08.79-.24,1.18,0a.31.31,0,0,0,.19,0A1.19,1.19,0,0,1,18.31,16Z"/>
          <path class="cls-1" d="M1.83,19.24a.61.61,0,0,1,.8.29c.19.31.3.29.57.07a6.93,6.93,0,0,0,.88-1.14c.38-.5.82-.94,1.21-1.43a9.77,9.77,0,0,0,.8-1.11c.41-.68.8-1.36,1.18-2.06.16-.29.26-.6.39-.9.28-.62.58-1.22.85-1.84A9.29,9.29,0,0,0,8.93,10a1.48,1.48,0,0,1,.72-.85c.27-.16.43-.1.56.18s.07.32.12.48a2.94,2.94,0,0,0,.33.8s0,0,.06,0a4.78,4.78,0,0,1,1.51.13,5.74,5.74,0,0,0,1.3-.07c.4,0,.81-.09,1.21-.11a.85.85,0,0,0,.85-.77c0-.28-.12-.46-.47-.61l-.93.17a8.26,8.26,0,0,0-.86.2,1.05,1.05,0,0,1-1.39-.94.75.75,0,0,1,.78-.7c.37,0,.74,0,1.11,0s.81-.09,1.21-.16a.71.71,0,0,0,.53-.56,1.82,1.82,0,0,0,0-1.06,1.43,1.43,0,0,0-1,0,1.28,1.28,0,0,1-.24.11,14.27,14.27,0,0,1-3.57.23A1.73,1.73,0,0,1,9.3,5.39a.64.64,0,0,1,.19-.79.76.76,0,0,1,.93-.06,2.09,2.09,0,0,0,.29.23,1,1,0,0,0,.46.15c1.07-.1,2.13-.23,3.2-.34.23,0,.46,0,.69,0,.42,0,.63-.21.63-.62a18.66,18.66,0,0,0-.11-2,2.19,2.19,0,0,0-.37-.75,3.3,3.3,0,0,0-.29-.41c.21-.49.38-.57.83-.59.67,0,1.35-.1,2-.18a.91.91,0,0,1,.85.21.41.41,0,0,1,.08.49c-.12.28-.23.57-.34.85a.42.42,0,0,0,0,.19c0,.61,0,1.23.11,1.83a.6.6,0,0,0,.85.45,6.23,6.23,0,0,1,.88-.18c.34-.06.69-.11,1-.2a1.49,1.49,0,0,1,1.21.45c.26.22.24.41,0,.64a1.57,1.57,0,0,1-1,.27,2.51,2.51,0,0,0-.85.2,3.51,3.51,0,0,1-1.48.36,1.53,1.53,0,0,0-.68.2.39.39,0,0,0-.2.31,10.07,10.07,0,0,0,.11,1,.79.79,0,0,0,.79,0l.79-.28a1.56,1.56,0,0,1,1.83.61,1.24,1.24,0,0,0,.14.18c.49.45.12.85-.33.94a2.31,2.31,0,0,1-.94-.06,1.83,1.83,0,0,0-.9,0,7.71,7.71,0,0,1-1.28.13c-.2,0-.47-.06-.54.18a1.15,1.15,0,0,0,0,.66c.08.25.3.31.56.27.65-.1,1.3-.15,1.93-.28.84-.16,1.67-.38,2.5-.58.17,0,.34-.11.52-.14a.81.81,0,0,1,1,.54,4.68,4.68,0,0,0,.3.54A1.45,1.45,0,0,1,25,10.88a.79.79,0,0,1-.67.81,1.38,1.38,0,0,1-1.06-.18,1.93,1.93,0,0,0-1.15-.26,4.76,4.76,0,0,1-2.09,0,.52.52,0,0,0-.3,0l-1.35.38a2.61,2.61,0,0,1-.55.14,9.13,9.13,0,0,0-1.94.2c-.46.12-1,.1-1.43.2-.7.15-1.4.34-2.08.54a1.84,1.84,0,0,0-.49.35,2.53,2.53,0,0,1-.26.22c-.37.16-.73.3-1.1.44a.6.6,0,0,1-.71-.16c-.15-.16-.29-.34-.47-.56a1.26,1.26,0,0,0-.25.28c-.26.51-.51,1-.74,1.55-.11.26-.16.54-.25.81-.25.81-.51,1.63-.76,2.45a6.89,6.89,0,0,0-.29,1.19,4.6,4.6,0,0,1-.62,1.64s-.06.06-.06.09c0,.87-.8,1.41-1,2.24-.11.61-.72.74-1.23.89A.44.44,0,0,1,3.87,24a17.85,17.85,0,0,1-1.41-1.17,2.21,2.21,0,0,1-.7-1.57c0-.46-.06-.92-.06-1.37A3.3,3.3,0,0,1,1.83,19.24Z"/>
          <path class="cls-1" d="M0,11.7A3,3,0,0,1,.45,9.8c.22-.29.39-.4.73-.23.72.35,1.42.74,2.14,1.1.28.14.59.24.88.36s.51.17.74.29c.48.23.95.49,1.42.74s.56.59.17,1a3,3,0,0,1-.68.61,2.37,2.37,0,0,1-.94.27,5.54,5.54,0,0,0-1.39.23,9.72,9.72,0,0,1-1.78.38A1.36,1.36,0,0,1,.49,13.8,4.08,4.08,0,0,1,0,11.7Z"/>
          <path class="cls-1" d="M7.34,7.38a6.69,6.69,0,0,1-.17.91.55.55,0,0,1-.33.32A2.1,2.1,0,0,1,5,8.36a8.92,8.92,0,0,1-2.28-2.5c-.42-.65-.83-1.31-1.27-2A6.45,6.45,0,0,0,1,3.24C.82,3.08.68,2.88.83,2.7a1.26,1.26,0,0,1,.6-.35.72.72,0,0,1,.45.14c.67.41,1.31.84,2,1.25s1.27.7,1.86,1.12A14.38,14.38,0,0,1,7.08,6.09a.69.69,0,0,1,.16.38C7.29,6.73,7.3,7,7.34,7.38Z"/>
        </g>
      </g>
    </g>
  </g>
</svg>
